<svg  xmlns="http://www.w3.org/2000/svg" xmlns:xlink="http://www.w3.org/1999/xlink" width="904" height="300" viewBox="0 0 928 324"><path transform="translate(0 100)" d="M50.6836,-55.0781L51.8555,-37.207Q51.8555,-36.5234 50.9766,-34.8633Q51.5625,-33.1055 51.5625,-32.9102L51.2695,-30.8594Q51.2695,-29.5898 56.8359,-28.8086Q57.3242,-28.8086 64.5508,-29.9805L66.6016,-29.6875L67.1875,-29.9805Q69.1406,-29.6875 70.4102,-29.6875L70.7031,-29.6875Q74.4141,-29.6875 75,-35.7422L75,-39.2578Q75,-39.5508 74.4141,-41.5039L74.4141,-45.8984Q74.4141,-46.875 74.707,-48.4375Q73.8281,-50.293 73.8281,-51.0742Q74.1211,-53.125 74.1211,-54.5898L73.5352,-54.7852L70.8984,-54.7852Q69.1406,-54.7852 66.6016,-55.0781Q65.625,-54.7852 65.4297,-54.7852L58.2031,-55.3711Q58.2031,-54.7852 57.6172,-54.7852L56.543,-54.7852L54.7852,-55.6641Q54.1992,-55.3711 53.9062,-55.3711Q52.3438,-55.6641 52.1484,-55.6641L50.6836,-55.0781ZM23.6328,-30.7617Q23.8281,-30.7617 24.0234,-30.8594Q26.2695,-30.2734 27.7344,-30.2734Q34.4727,-30.2734 36.0352,-30.5664Q39.8438,-30.2734 42.3828,-29.3945Q43.457,-29.3945 44.6289,-31.1523Q44.3359,-33.2031 43.457,-35.1562Q43.9453,-36.9141 44.3359,-36.9141L44.043,-40.4297L44.043,-40.7227Q44.043,-41.8945 44.3359,-42.9688L43.75,-48.7305Q44.6289,-50.0977 44.6289,-50.4883Q44.6289,-54.5898 40.918,-54.5898Q40.625,-54.5898 38.5742,-55.0781L37.6953,-55.0781Q34.375,-55.0781 28.5156,-54.5898Q26.6602,-55.0781 26.1719,-55.0781Q22.4609,-54.9805 22.4609,-54.5898Q21.4844,-50.7812 20.9961,-50.4883L20.9961,-49.6094Q21.582,-47.5586 21.582,-47.3633L21.582,-45.3125Q21.582,-42.6758 21.875,-37.793L20.1172,-33.4961Q21.0938,-30.8594 23.5352,-30.8594L23.6328,-30.7617ZM22.3633,-28.0273Q22.168,-28.0273 21.875,-27.9297L21.582,-27.3438Q22.168,-24.8047 22.168,-23.9258Q22.168,-20.2148 16.0156,-18.1641Q13.4766,-18.75 13.4766,-19.6289Q14.0625,-20.8008 14.0625,-21.2891Q12.5977,-22.168 12.5977,-23.3398Q13.1836,-26.3672 14.6484,-27.9297Q14.6484,-28.2227 14.0625,-30.2734L14.0625,-30.8594Q14.0625,-31.8359 14.9414,-32.9102L14.9414,-35.7422L13.7695,-42.9688Q13.7695,-43.5547 14.3555,-45.0195Q14.0625,-46.875 13.4766,-48.1445Q13.7695,-51.3672 13.7695,-53.7109Q13.7695,-55.2734 12.8906,-58.5938Q13.7695,-63.1836 14.9414,-63.1836L15.8203,-63.1836Q16.3086,-62.6953 22.168,-60.0586Q22.168,-59.375 29.8828,-58.3008Q29.8828,-57.9102 31.0547,-57.7148Q33.0078,-58.5938 33.6914,-58.5938Q34.5703,-58.5938 36.0352,-58.0078L38.2812,-58.5938Q39.3555,-58.0078 40.625,-58.0078L42.0898,-58.0078L44.043,-58.5938L44.043,-59.1797Q44.043,-60.3516 44.3359,-61.4258Q44.043,-62.5977 44.043,-63.4766L44.6289,-65.5273L44.6289,-65.8203Q43.8477,-67.0898 42.6758,-74.5117Q42.0898,-74.5117 42.0898,-75.5859Q42.4805,-78.5156 48.1445,-78.5156Q53.0273,-77.2461 53.0273,-76.1719Q53.3203,-76.1719 53.3203,-75.293L53.3203,-73.3398Q49.9023,-69.3359 49.9023,-68.1641L49.9023,-67.8711Q50.9766,-66.6016 50.9766,-65.5273L50.9766,-63.7695L50.3906,-62.8906L50.3906,-62.0117Q52.1484,-58.5938 52.7344,-58.5938Q54.3945,-58.4961 55.3711,-57.7148L55.957,-58.0078Q62.3047,-57.7148 62.8906,-57.7148Q72.6562,-59.5703 73.8281,-60.0586Q74.5117,-61.7188 77.6367,-63.1836L78.418,-63.1836Q80.3711,-62.207 83.6914,-58.3008Q87.4023,-56.7383 87.6953,-54.7852Q87.6953,-54.1016 84.2773,-51.6602Q84.2773,-50.7812 83.6914,-50.7812L83.9844,-49.3164Q83.3984,-47.2656 83.3984,-47.0703L83.3984,-46.1914Q83.3984,-45.5078 84.4727,-40.7227L83.9844,-38.6719Q84.2773,-36.1328 84.2773,-35.7422L83.3984,-34.082Q84.7656,-27.5391 85.3516,-26.2695L85.3516,-25.3906Q84.8633,-24.8047 83.9844,-22.168Q80.4688,-19.6289 78.7109,-19.6289Q73.2422,-20.8984 73.2422,-22.168L73.2422,-25.0977Q73.2422,-27.1484 69.5312,-27.1484Q69.5312,-27.3438 68.9453,-27.3438Q66.8945,-26.7578 66.8945,-26.5625L63.4766,-26.8555L59.082,-26.8555Q55.3711,-27.6367 54.1992,-27.6367Q51.2695,-27.6367 51.2695,-20.2148Q50.9766,-20.2148 50.3906,-19.043L51.5625,-16.9922Q50.9766,-16.0156 50.9766,-15.2344L50.9766,-14.9414Q51.6602,-10.0586 52.4414,-9.17969L52.4414,-6.83594L51.8555,-6.05469Q51.8555,-4.98047 52.1484,-3.41797Q51.8555,-2.92969 51.8555,-1.95312Q52.4414,-1.95312 53.0273,2.34375Q52.7344,2.83203 52.7344,3.51562L52.7344,4.39453Q53.3203,6.44531 53.3203,6.73828Q53.3203,9.57031 48.1445,10.4492Q40.918,10.4492 40.918,7.22656L40.332,6.44531L40.332,5.85938Q40.332,4.6875 42.0898,2.63672L42.0898,1.75781Q41.5039,1.07422 41.5039,0.585938Q43.457,-2.92969 43.457,-4.00391L42.9688,-5.76172Q42.9688,-8.20312 42.6758,-12.9883Q42.9688,-17.7734 42.9688,-20.4102L42.6758,-21.582L44.3359,-23.9258Q43.5547,-24.1211 42.3828,-27.3438L40.918,-27.6367L36.8164,-27.6367Q36.2305,-27.6367 35.7422,-27.3438Q35.1562,-27.6367 34.5703,-27.6367L28.3203,-27.6367Q26.9531,-27.6367 23.7305,-27.1484Q22.8516,-27.4414 22.3633,-28.0273Z"></path><path transform="translate(100 100)" d="M48.2422,-77.5391Q54.6875,-75.6836 55.5664,-73.6328L55.5664,-73.3398Q55.5664,-72.168 54.4922,-69.4336Q54.2969,-68.2617 54.2969,-67.2852Q54.2969,-65.332 53.5156,-63.0859L52.5391,-62.4023Q53.5156,-62.4023 53.5156,-61.7188L53.5156,-60.6445L52.832,-59.5703L54.5898,-58.2031Q61.1328,-57.8125 62.6953,-57.8125L62.6953,-57.5195Q64.5508,-58.2031 70.8008,-58.2031L72.168,-58.2031Q77.1484,-59.2773 77.1484,-61.7188Q78.3203,-61.7188 80.957,-66.3086L83.4961,-68.0664L84.1797,-68.0664Q87.207,-68.0664 91.6016,-61.7188Q94.2383,-61.7188 95.8008,-59.2773Q94.5312,-54.2969 91.6016,-54.2969L90.8203,-54.2969Q86.4258,-55.3711 80.957,-55.7617L80.957,-56.0547Q79.1992,-54.9805 77.4414,-54.9805L74.3164,-54.9805Q74.3164,-54.2969 70.8008,-52.1484L71.1914,-51.4648L71.1914,-50.7812Q69.043,-45.0195 69.043,-43.3594L67.2852,-38.8672L67.6758,-37.1094Q66.3086,-31.8359 61.6211,-25.7812Q59.9609,-21.2891 57.8125,-19.1406L57.8125,-17.6758Q57.8125,-14.7461 62.6953,-11.7188Q62.6953,-10.5469 66.8945,-9.27734Q66.8945,-8.10547 70.8008,-7.12891Q71.4844,-7.51953 71.875,-7.51953Q80.2734,-2.92969 84.4727,-2.92969Q87.0117,-4.00391 87.6953,-4.00391L88.0859,-4.00391Q88.9648,-2.53906 93.3594,-2.24609Q93.9453,-2.53906 94.7266,-2.53906L95.8008,-2.53906Q96.0938,-2.53906 96.0938,-2.24609L96.875,-2.53906L97.5586,-2.53906Q98.2422,-2.44141 98.2422,-1.85547L98.2422,-1.5625Q95.0195,1.75781 87.3047,3.71094Q83.9844,7.91016 82.7148,8.30078Q79.3945,7.61719 70.1172,1.66016Q69.5312,0.292969 65.1367,-1.17188Q65.1367,-2.14844 60.5469,-3.61328Q59.8633,-5.56641 52.832,-9.96094Q50.8789,-9.96094 45.1172,-5.76172Q42.2852,-5.76172 42.2852,-3.32031Q30.2734,3.71094 27.5391,3.71094L26.0742,3.41797Q25.4883,3.41797 22.5586,5.46875Q21.4844,5.46875 17.6758,6.93359L15.918,6.93359Q15.2344,6.93359 15.2344,6.25L15.2344,5.85938Q15.2344,4.78516 23.6328,1.66016Q25.9766,0.878906 29.2969,-2.24609Q35.8398,-4.6875 36.3281,-7.12891Q43.1641,-11.4258 45.1172,-14.1602Q47.0703,-14.1602 48.2422,-16.9922Q45.5078,-20.1172 45.5078,-22.6562Q41.9922,-24.8047 40.918,-29.0039Q40.918,-29.4922 39.1602,-30.3711Q36.6211,-35.4492 36.6211,-39.5508Q37.0117,-40.2344 37.0117,-40.625Q35.6445,-43.75 35.2539,-43.75L33.8867,-43.75Q30.4688,-38.4766 27.1484,-38.4766Q26.0742,-38.0859 23.6328,-33.8867L22.2656,-33.5938Q19.043,-34.668 19.043,-37.793Q17.6758,-38.8672 17.6758,-39.1602L17.6758,-40.2344Q21.582,-44.8242 22.2656,-44.8242Q25.6836,-44.8242 30.3711,-47.6562Q31.6406,-48.3398 33.4961,-51.4648Q34.5703,-51.4648 35.2539,-53.9062Q34.1797,-53.9062 34.1797,-56.4453Q32.8125,-54.2969 32.4219,-54.2969L31.7383,-54.2969Q29.8828,-54.2969 29.2969,-55.7617Q29.2969,-56.7383 33.1055,-57.8125L33.4961,-57.8125L34.5703,-57.1289L34.8633,-57.1289Q37.3047,-57.1289 41.6016,-57.8125Q42.8711,-57.1289 44.4336,-57.1289L45.1172,-57.1289Q45.6055,-57.1289 46.1914,-58.4961Q45.5078,-59.668 45.5078,-60.6445L45.5078,-63.7695L44.7266,-75.3906Q44.7266,-76.8555 48.2422,-77.5391ZM4.6875,-62.4023Q6.25,-62.4023 10.9375,-57.1289Q11.6211,-56.7383 12.4023,-56.7383L14.5508,-58.4961L21.1914,-56.7383Q22.8516,-56.7383 27.1484,-57.8125Q28.2227,-57.8125 28.2227,-56.4453Q27.5391,-54.7852 26.8555,-54.6875L20.5078,-55.3711Q20.5078,-54.4922 11.7188,-53.9062Q11.7188,-54.4922 10.6445,-54.9805L9.17969,-54.9805Q7.91016,-53.9062 6.73828,-53.9062L5.66406,-53.9062Q5.27344,-53.9062 2.53906,-57.1289L2.53906,-57.5195Q3.51562,-62.4023 4.6875,-62.4023ZM41.2109,-53.9062Q38.3789,-54.2969 37.6953,-54.6875L37.6953,-53.6133Q40.918,-52.3438 41.2109,-50.7812Q39.3555,-46.582 37.6953,-46.582L38.0859,-44.8242Q37.4023,-44.7266 37.4023,-44.1406L37.4023,-43.3594Q39.2578,-43.3594 44.7266,-29.2969Q47.2656,-25 50.7812,-23.3398L51.4648,-23.3398Q53.125,-23.9258 54.2969,-27.9297Q58.6914,-32.4219 60.5469,-43.3594Q61.6211,-44.7266 61.6211,-45.8984L61.3281,-47.2656Q63.0859,-51.1719 63.7695,-54.2969L61.6211,-54.9805Q60.9375,-54.9805 59.1797,-54.2969Q57.0312,-54.8828 57.0312,-55.3711L55.2734,-54.9805Q54.4922,-54.9805 53.9062,-55.3711L51.7578,-54.9805L51.0742,-55.3711Q50.3906,-54.9805 50,-54.9805L46.4844,-55.3711L41.2109,-53.9062ZM11.3281,5.46875L12.0117,5.85938Q12.6953,5.46875 13.4766,5.46875Q14.1602,5.66406 14.1602,6.25Q12.1094,8.98438 9.96094,9.76562Q6.05469,9.47266 6.05469,8.69141L6.05469,8.30078Q6.05469,7.03125 11.3281,5.46875Z"></path><path transform="translate(200 100)" d="M22.8516,-66.0156Q16.9922,-66.6992 15.4297,-66.6992L14.7461,-65.625Q14.7461,-64.3555 16.7969,-62.3047L16.7969,-62.0117Q16.7969,-61.6211 16.1133,-59.2773Q20.0195,-57.9102 24.5117,-52.6367Q24.5117,-51.8555 29.1992,-49.6094Q31.6406,-46.875 33.2031,-46.875Q34.082,-49.2188 34.5703,-49.2188Q33.8867,-55.7617 33.8867,-59.668Q33.8867,-59.9609 36.2305,-65.332Q35.8398,-66.3086 34.1797,-66.3086L31.543,-66.3086Q30.3711,-66.3086 25.8789,-66.9922Q22.8516,-66.4062 22.8516,-66.0156ZM16.4062,-54.9805L18.457,-46.875Q17.7734,-43.9453 17.7734,-42.1875L18.1641,-40.8203L17.0898,-39.1602Q17.4805,-37.4023 17.4805,-37.207L16.4062,-35.5469L16.4062,-34.4727Q18.1641,-32.5195 18.1641,-32.1289Q18.1641,-31.6406 17.4805,-25.4883L18.457,-23.4375Q17.4805,-21.6797 16.7969,-18.75Q18.457,-12.6953 18.457,-11.0352Q18.457,-9.47266 17.0898,-7.03125L17.4805,-5.37109L17.0898,-3.02734Q17.6758,-1.46484 19.4336,-0.292969L19.8242,-0.292969Q22.7539,-2.05078 26.1719,-13.7695Q27.9297,-16.7969 29.1992,-22.0703Q31.1523,-23.1445 31.543,-23.1445L31.543,-23.8281L29.8828,-25.7812Q29.8828,-27.3438 32.5195,-29.4922L32.5195,-33.7891Q31.0547,-42.8711 28.5156,-42.8711Q24.4141,-49.0234 24.1211,-49.9023Q22.7539,-51.8555 18.457,-54.2969Q17.9688,-55.5664 17.4805,-55.5664L17.0898,-55.5664Q16.4062,-55.4688 16.4062,-54.9805ZM61.0352,-25.7812L61.4258,-30.0781Q60.9375,-31.1523 60.9375,-32.0312L60.9375,-32.9102Q60.9375,-34.2773 62.5,-35.8398Q58.3008,-40.2344 53.0273,-49.1211Q53.0273,-50.7812 49.2188,-54.9805Q49.2188,-55.3711 47.8516,-57.5195L48.2422,-59.5703L47.2656,-61.1328L47.2656,-61.8164Q47.2656,-62.5 48.5352,-62.6953Q51.8555,-61.5234 51.8555,-58.4961Q55.957,-55.7617 55.957,-50.4883Q60.9375,-48.8281 60.9375,-46.582L61.4258,-46.1914L62.5,-46.1914Q62.1094,-49.4141 62.1094,-51.1719L62.1094,-53.7109Q62.1094,-55.1758 62.5,-56.8359L61.8164,-62.6953Q62.5,-65.1367 62.5,-65.625Q61.0352,-67.8711 55.6641,-67.8711Q50.9766,-67.6758 48.9258,-66.9922L48.5352,-66.9922Q47.0703,-66.9922 46.2891,-67.8711Q42.0898,-66.3086 42.0898,-65.625L42.0898,-61.1328Q40.8203,-57.2266 40.8203,-56.8359L40.8203,-56.25Q41.5039,-54.0039 41.5039,-53.7109L41.5039,-53.418Q40.4297,-50.4883 40.4297,-50.0977L41.1133,-49.1211L41.1133,-46.582Q40.1367,-43.6523 40.1367,-43.2617L41.1133,-41.9922L40.8203,-39.7461Q41.1133,-37.793 45.9961,-32.6172L46.2891,-32.0312L45.9961,-30.0781Q48.6328,-30.0781 52.1484,-21.9727Q53.418,-18.1641 53.418,-17.4805L53.418,-15.8203Q53.418,-14.1602 52.4414,-13.8672L51.1719,-13.8672Q46.2891,-13.8672 46.2891,-17.4805Q45.0195,-18.75 43.0664,-24.2188Q42.5781,-24.2188 42.0898,-25.1953L42.0898,-26.4648L45.0195,-28.8086L45.0195,-29.6875Q43.6523,-29.6875 41.5039,-27.4414L40.1367,-27.4414Q39.6484,-27.4414 38.8672,-30.0781L38.1836,-30.3711L37.207,-30.3711Q37.207,-29.5898 35.6445,-27.4414Q36.2305,-24.5117 36.2305,-23.8281Q34.1797,-19.9219 32.4219,-17.7734Q32.4219,-15.625 29.4922,-13.5742L29.4922,-13.1836Q30.1758,-12.207 30.1758,-11.3281L25.8789,-3.51562Q25.8789,-2.34375 21.7773,0.683594Q19.7266,7.42188 16.8945,7.42188Q13.7695,8.10547 12.9883,8.10547Q10.3516,6.64062 10.3516,5.17578Q11.0352,4.00391 11.0352,2.34375Q10.3516,0.390625 10.0586,-3.22266L11.4258,-5.46875Q11.0352,-7.22656 11.0352,-8.39844Q11.0352,-8.69141 11.4258,-9.375Q10.0586,-11.8164 10.0586,-12.5977L10.0586,-13.1836Q11.4258,-14.6484 11.4258,-15.8203L11.4258,-20.0195Q11.4258,-23.5352 11.0352,-25.8789Q11.4258,-27.832 11.4258,-30.6641Q11.4258,-31.4453 11.0352,-34.2773Q11.6211,-35.2539 11.6211,-35.8398Q11.6211,-38.6719 11.4258,-41.6992Q11.6211,-48.5352 12.0117,-48.8281L11.6211,-49.4141L12.0117,-51.6602L11.4258,-53.0273Q11.6211,-55.957 11.6211,-56.6406L11.4258,-59.5703L11.6211,-61.4258Q11.6211,-62.4023 11.0352,-64.0625L11.4258,-65.918Q11.4258,-67.7734 11.0352,-68.1641Q11.4258,-70.0195 11.4258,-71.0938L11.4258,-73.1445Q12.3047,-74.707 13.6719,-74.707Q14.7461,-74.707 21.7773,-71.4844Q23.5352,-71.4844 29.7852,-71.0938Q34.668,-71.4844 36.9141,-71.4844L41.6992,-70.2148Q44.4336,-71.7773 47.2656,-71.7773L50.7812,-71.7773Q57.7148,-71.6797 59.8633,-70.8008L61.4258,-71.0938L63.1836,-71.0938Q67.8711,-70.5078 68.3594,-70.5078L72.168,-70.5078Q76.3672,-70.5078 79.0039,-74.0234Q80.0781,-74.707 80.8594,-74.707L83.1055,-74.707Q84.375,-74.707 87.4023,-71.7773Q89.9414,-70.5078 89.9414,-68.5547Q89.9414,-67.2852 85.4492,-66.6016L85.4492,-65.918L87.4023,-64.0625Q86.6211,-57.5195 85.8398,-56.8359L85.8398,-56.6406Q87.4023,-55.1758 87.4023,-54.5898Q87.4023,-53.2227 88.0859,-44.9219Q88.0859,-44.2383 87.6953,-43.6523Q88.0859,-41.8945 88.0859,-40.7227L88.0859,-37.5Q88.0859,-34.668 88.3789,-31.0547Q88.0859,-29.6875 88.0859,-28.8086L88.3789,-26.7578Q87.6953,-24.9023 87.4023,-24.9023L87.6953,-23.3398L87.4023,-18.1641L88.3789,-16.4062L88.3789,-15.2344L87.6953,-14.1602L87.6953,-13.8672L88.0859,-11.9141Q87.1094,-9.86328 87.1094,-9.08203Q88.3789,-7.61719 88.3789,-6.44531L88.3789,-0.585938Q87.8906,4.39453 85.8398,6.54297Q83.4961,7.12891 81.9336,7.12891L80.5664,7.12891Q80.2734,7.12891 80.2734,6.83594Q79.7852,7.12891 76.0742,7.42188Q74.9023,7.42188 72.4609,1.66016Q70.1172,1.07422 69.2383,-0.585938Q73.0469,-4.19922 79.6875,-4.19922Q79.6875,-4.49219 80.5664,-4.78516Q80.5664,-5.07812 80.2734,-6.83594Q81.0547,-15.5273 82.5195,-15.5273Q81.9336,-16.5039 81.9336,-17.0898Q81.9336,-17.3828 82.2266,-19.043Q81.543,-20.5078 80.2734,-25.5859Q80.4688,-27.832 80.8594,-27.832L80.5664,-29.3945L80.5664,-29.6875Q80.5664,-30.8594 80.8594,-32.6172Q79.6875,-34.668 79.6875,-35.5469Q79.6875,-35.7422 79.9805,-37.5Q79.3945,-38.6719 79.0039,-40.7227Q79.6875,-43.0664 79.6875,-45.6055Q78.6133,-47.3633 78.6133,-49.1211Q80.5664,-51.5625 80.5664,-52.7344Q79.2969,-54.8828 79.2969,-56.25Q79.2969,-56.543 79.6875,-58.8867Q78.7109,-58.8867 77.9297,-62.6953Q78.3203,-63.3789 78.3203,-63.6719Q77.6367,-64.8438 77.6367,-65.625Q78.3203,-65.625 78.3203,-66.3086L78.3203,-66.9922Q78.3203,-67.9688 71.582,-68.5547L68.6523,-66.3086L68.6523,-64.3555L68.9453,-62.4023Q68.457,-60.4492 67.9688,-60.4492L68.3594,-58.8867L67.6758,-56.6406Q68.3594,-54.7852 68.3594,-54.5898Q68.3594,-53.5156 67.9688,-51.6602L68.6523,-45.8984Q68.3594,-42.6758 67.9688,-42.6758L68.3594,-41.9922Q67.6758,-39.1602 67.6758,-38.0859Q67.6758,-37.4023 72.8516,-27.832Q76.8555,-21.4844 78.3203,-19.7266Q78.6133,-16.4062 79.6875,-13.5742L79.6875,-13.1836Q78.5156,-9.96094 76.3672,-9.96094Q73.1445,-11.2305 73.1445,-14.8438Q72.2656,-15.5273 68.3594,-25.1953Q67.3828,-26.4648 66.1133,-26.4648L65.4297,-26.4648Q64.8438,-26.4648 63.4766,-22.2656L63.1836,-22.2656Q62.4023,-17.4805 60.5469,-13.9648Q58.6914,-10.7422 58.3008,-10.7422Q57.5195,-8.10547 54.9805,-6.25Q50.5859,1.75781 42.6758,4.49219Q42.4805,7.03125 40.1367,7.03125L37.5,7.03125Q35.8398,7.03125 34.9609,5.46875L34.9609,4.78516Q36.0352,2.63672 41.1133,0.976562Q43.5547,-1.85547 47.8516,-4.29688Q47.8516,-5.46875 54.6875,-11.7188Q54.6875,-12.3047 57.9102,-17.5781Q57.9102,-18.75 60.1562,-25Q60.3516,-25.5859 61.0352,-25.7812Z"></path><path transform="translate(300 100)" d="M49.5117,-77.3438Q58.5938,-77.4414 58.5938,-74.2188L58.5938,-73.6328L58.3008,-71.6797Q58.9844,-70.6055 58.9844,-69.3359L58.9844,-68.457Q58.9844,-67.5781 56.6406,-67.2852L56.6406,-66.1133Q58.2031,-64.4531 59.5703,-64.3555Q60.9375,-64.3555 67.7734,-65.0391L71.2891,-64.8438Q74.0234,-65.4297 75.5859,-65.4297L76.4648,-65.4297Q76.9531,-65.4297 79.9805,-69.043L81.0547,-69.043Q85.9375,-67.2852 90.5273,-60.4492Q90.5273,-59.375 91.1133,-58.6914Q88.9648,-55.7617 85.0586,-55.6641Q82.2266,-55.4688 75.7812,-50.4883Q73.4375,-50.4883 73.2422,-48.4375Q73.5352,-46.3867 73.5352,-45.2148Q72.6562,-43.8477 65.1367,-41.6016Q60.7422,-38.3789 59.375,-37.1094Q58.5938,-37.1094 54.9805,-32.9102Q53.5156,-31.0547 53.5156,-29.7852L53.5156,-28.0273Q53.6133,-26.5625 57.7148,-25.293Q61.1328,-26.2695 61.9141,-26.2695Q62.1094,-25.3906 64.2578,-24.4141L65.7227,-24.4141Q72.3633,-26.2695 75.8789,-26.3672L79.1016,-26.3672Q83.7891,-32.2266 88.2812,-32.3242Q92.2852,-32.4219 97.168,-26.0742Q97.168,-25.3906 97.4609,-23.8281Q96.6797,-21.9727 95.9961,-21.7773L94.8242,-21.7773Q93.0664,-21.7773 89.0625,-22.5586Q86.2305,-22.2656 83.7891,-22.168Q82.3242,-22.168 79.3945,-22.4609Q78.3203,-21.7773 77.0508,-21.7773Q76.3672,-21.7773 74.707,-22.0703L73.6328,-21.7773Q71.0938,-21.9727 69.8242,-21.9727Q67.8711,-21.3867 67.1875,-21.3867Q66.6992,-21.3867 66.0156,-22.5586Q64.8438,-22.5586 61.6211,-21.6797Q58.9844,-21.9727 58.3008,-21.9727Q53.6133,-20.8984 53.7109,-19.8242L53.7109,-19.043Q53.7109,-18.5547 54.5898,-18.1641L54.2969,-16.1133Q54.2969,-15.0391 54.1992,-11.5234Q54.2969,-10.3516 54.0039,-9.17969Q54.0039,-8.00781 55.1758,-4.29688L54.9805,-2.53906L54.9805,-2.24609Q54.9805,-1.07422 55.2734,0.976562Q53.5156,9.47266 50.7812,9.47266Q49.5117,11.5234 45.0195,11.6211Q45.0195,11.9141 44.5312,11.9141Q42.1875,11.7188 42.1875,11.0352L42.3828,9.57031Q42.2852,8.00781 35.6445,4.39453Q35.3516,3.90625 35.3516,3.22266L33.0078,3.32031Q32.6172,3.32031 31.543,1.85547L31.543,0.976562Q34.1797,0.390625 34.082,0.0976562L36.1328,0.390625L38.7695,0.292969Q44.3359,0.195312 44.3359,-1.75781L44.8242,-3.80859L44.5312,-6.44531Q45.1172,-7.51953 45.1172,-8.78906L45.0195,-11.1328Q46.1914,-12.5977 46.1914,-12.8906Q45.0195,-12.8906 45.1172,-17.3828L45.1172,-18.8477L45.3125,-21.7773L44.7266,-22.0703L43.2617,-21.7773Q42.3828,-22.3633 39.4531,-22.8516Q38.3789,-22.2656 37.1094,-22.2656L35.1562,-22.2656Q32.4219,-22.168 30.1758,-22.4609Q28.6133,-22.168 26.9531,-22.168L24.0234,-22.3633Q22.4609,-22.0703 21.6797,-22.0703Q19.1406,-22.3633 18.5547,-22.2656Q12.5977,-20.8008 12.4023,-20.8008Q12.4023,-20.5078 11.8164,-20.5078Q10.9375,-20.4102 9.47266,-20.9961Q5.17578,-20.7031 4.58984,-19.8242L4.29688,-19.8242Q3.80859,-19.8242 3.41797,-20.6055L3.32031,-22.0703Q3.90625,-27.0508 7.61719,-27.1484Q9.17969,-27.1484 12.5977,-27.7344Q15.1367,-26.6602 19.3359,-25.3906Q19.4336,-25.7812 19.9219,-25.7812L20.2148,-25.7812L23.1445,-25.7812Q25,-25.7812 27.5391,-25.4883Q29.3945,-25.7812 31.25,-25.8789Q37.9883,-25.4883 39.7461,-25.4883Q43.75,-25.5859 44.3359,-29.3945L44.3359,-29.9805Q44.3359,-31.3477 44.043,-32.8125Q44.2383,-34.668 44.2383,-36.9141Q45.2148,-38.6719 46.875,-38.6719Q49.8047,-37.5977 50.0977,-37.5977Q50.9766,-37.5977 52.9297,-39.9414Q54.0039,-39.9414 56.6406,-43.8477L56.6406,-44.6289Q55.1758,-44.3359 54.8828,-44.3359L54.2969,-44.6289L52.9297,-44.3359Q51.1719,-44.5312 51.1719,-44.9219L49.707,-44.6289L48.8281,-44.5312Q47.9492,-44.5312 47.9492,-44.8242L46.4844,-44.5312L40.332,-45.4102Q40.0391,-45.4102 37.1094,-44.8242L35.9375,-45.1172Q34.7656,-44.6289 29.8828,-43.8477L28.418,-44.1406Q25.8789,-43.8477 24.0234,-43.75L23.1445,-43.75Q22.5586,-43.75 22.5586,-44.3359L22.5586,-46.6797Q22.5586,-48.5352 23.9258,-49.6094L26.8555,-49.3164Q28.125,-49.4141 30.0781,-49.707Q31.543,-48.8281 32.1289,-48.8281L34.1797,-49.1211Q36.2305,-48.3398 36.5234,-48.3398Q38.4766,-49.2188 39.7461,-49.2188L41.5039,-48.2422Q44.3359,-47.7539 44.7266,-47.7539L45.2148,-47.7539Q45.5078,-47.7539 47.5586,-48.3398L49.9023,-48.3398Q51.9531,-47.8516 52.2461,-47.8516Q56.543,-48.5352 59.1797,-50.293Q61.8164,-53.5156 63.2812,-53.5156Q65.5273,-51.7578 70.6055,-51.2695L70.5078,-52.4414L69.9219,-53.3203L69.9219,-53.6133L73.3398,-58.6914L73.3398,-59.5703Q73.2422,-60.1562 70.7031,-61.3281L69.5312,-61.3281Q67.4805,-61.2305 63.1836,-60.6445Q59.375,-61.0352 59.375,-61.4258Q56.8359,-61.0352 56.1523,-60.5469L54.3945,-60.5469Q52.7344,-60.4492 51.4648,-61.6211L51.1719,-61.6211L50.293,-61.0352L48.2422,-61.0352Q46.2891,-60.6445 46.2891,-60.0586L44.2383,-60.3516L40.7227,-60.3516Q36.4258,-59.668 36.0352,-59.668L31.7383,-59.5703Q31.4453,-59.5703 31.4453,-59.8633L30.8594,-59.5703Q28.9062,-60.1562 28.2227,-60.1562L26.4648,-60.1562Q22.9492,-59.668 22.9492,-58.0078Q22.5586,-53.3203 17.8711,-47.168Q14.3555,-45.9961 12.6953,-45.9961Q11.1328,-45.8984 8.78906,-52.0508L8.78906,-52.3438Q8.69141,-55.1758 15.332,-62.0117Q17.3828,-65.918 17.2852,-68.75Q18.75,-70.8008 20.2148,-70.8008L20.8008,-70.8008Q21.9727,-70.5078 24.3164,-64.7461L24.9023,-64.4531L26.9531,-64.5508Q28.418,-64.5508 30.4688,-65.1367Q35.7422,-64.9414 37.5,-64.3555L38.0859,-64.3555Q38.6719,-64.3555 39.1602,-64.6484Q42.0898,-63.5742 42.6758,-63.5742L42.9688,-63.5742Q42.9688,-64.1602 44.4336,-65.918L44.4336,-68.8477Q44.3359,-70.7031 44.9219,-72.9492Q44.6289,-74.5117 44.6289,-75.1953Q44.5312,-77.0508 49.5117,-77.3438Z"></path><path transform="translate(400 100)" d="M58.3008,-78.0273L60.6445,-78.0273L60.6445,-77.4414L62.3047,-77.4414L62.3047,-76.8555L65.2344,-76.8555L65.2344,-76.3672L66.9922,-76.3672L66.9922,-75.7812L68.6523,-75.7812L68.6523,-75.1953L69.2383,-75.1953L69.2383,-74.6094L69.8242,-74.6094L69.8242,-74.0234L70.4102,-74.0234L70.4102,-73.4375L71.582,-73.4375L71.582,-71.6797L70.9961,-71.6797L70.9961,-70.6055L71.582,-70.6055L71.582,-68.8477L70.9961,-68.8477L70.9961,-67.6758L70.4102,-67.6758L70.4102,-67.0898L69.8242,-67.0898L69.8242,-66.5039L68.6523,-66.5039L68.6523,-65.918L68.1641,-65.918L68.1641,-64.7461L67.5781,-64.7461L67.5781,-64.2578L66.9922,-64.2578L66.9922,-61.9141L66.4062,-61.9141L66.4062,-54.9805L66.9922,-54.9805L66.9922,-54.3945L67.5781,-54.3945L67.5781,-52.6367L66.9922,-52.6367L66.9922,-50.9766L66.4062,-50.9766L66.4062,-45.8008L68.6523,-45.8008L68.6523,-45.2148L69.2383,-45.2148L69.2383,-44.6289L70.9961,-44.6289L70.9961,-45.2148L72.7539,-45.2148L72.7539,-45.8008L75.5859,-45.8008L75.5859,-45.2148L79.1016,-45.2148L79.1016,-44.6289L79.6875,-44.6289L79.6875,-45.2148L80.2734,-45.2148L80.2734,-46.2891L80.7617,-46.2891L80.7617,-46.875L81.9336,-46.875L81.9336,-48.0469L82.5195,-48.0469L82.5195,-49.2188L83.1055,-49.2188L83.1055,-49.8047L83.6914,-49.8047L83.6914,-50.9766L84.2773,-50.9766L84.2773,-51.5625L84.8633,-51.5625L84.8633,-52.6367L85.4492,-52.6367L85.4492,-53.2227L87.1094,-53.2227L87.1094,-52.6367L88.2812,-52.6367L88.2812,-52.1484L88.8672,-52.1484L88.8672,-51.5625L89.4531,-51.5625L89.4531,-50.9766L90.0391,-50.9766L90.0391,-49.8047L90.625,-49.8047L90.625,-47.4609L91.2109,-47.4609L91.2109,-46.875L92.3828,-46.875L92.3828,-46.2891L94.043,-46.2891L94.043,-45.8008L94.6289,-45.8008L94.6289,-44.043L95.2148,-44.043L95.2148,-42.8711L95.8008,-42.8711L95.8008,-41.6992L94.6289,-41.6992L94.6289,-41.1133L94.043,-41.1133L94.043,-40.0391L93.457,-40.0391L93.457,-39.4531L92.8711,-39.4531L92.8711,-38.8672L91.7969,-38.8672L91.7969,-38.2812L87.6953,-38.2812L87.6953,-38.8672L86.6211,-38.8672L86.6211,-38.2812L85.4492,-38.2812L85.4492,-37.6953L81.3477,-37.6953L81.3477,-38.2812L80.7617,-38.2812L80.7617,-38.8672L80.2734,-38.8672L80.2734,-39.4531L78.5156,-39.4531L78.5156,-38.8672L77.9297,-38.8672L77.9297,-38.2812L69.8242,-38.2812L69.8242,-39.4531L67.5781,-39.4531L67.5781,-38.8672L66.9922,-38.8672L66.9922,-38.2812L66.4062,-38.2812L66.4062,-37.6953L65.8203,-37.6953L65.8203,-35.3516L65.2344,-35.3516L65.2344,-33.1055L65.8203,-33.1055L65.8203,-30.7617L66.4062,-30.7617L66.4062,-29.0039L66.9922,-29.0039L66.9922,-26.1719L66.4062,-26.1719L66.4062,-24.4141L65.8203,-24.4141L65.8203,-23.2422L66.4062,-23.2422L66.4062,-19.8242L65.8203,-19.8242L65.8203,-19.2383L66.4062,-19.2383L66.4062,-16.8945L65.8203,-16.8945L65.8203,-15.7227L66.4062,-15.7227L66.4062,-8.88672L66.9922,-8.88672L66.9922,-6.54297L67.5781,-6.54297L67.5781,-5.95703L68.6523,-5.95703L68.6523,-4.78516L68.1641,-4.78516L68.1641,-4.19922L66.9922,-4.19922L66.9922,-3.125L66.4062,-3.125L66.4062,-1.36719L66.9922,-1.36719L66.9922,2.14844L67.5781,2.14844L67.5781,4.98047L66.9922,4.98047L66.9922,8.49609L66.4062,8.49609L66.4062,9.57031L65.8203,9.57031L65.8203,10.1562L65.2344,10.1562L65.2344,10.7422L64.0625,10.7422L64.0625,11.3281L62.3047,11.3281L62.3047,11.9141L58.3008,11.9141L58.3008,11.3281L57.7148,11.3281L57.7148,10.7422L57.1289,10.7422L57.1289,10.1562L56.543,10.1562L56.543,9.57031L56.0547,9.57031L56.0547,8.98438L55.4688,8.98438L55.4688,8.49609L54.8828,8.49609L54.8828,0.976562L55.4688,0.976562L55.4688,-1.95312L56.0547,-1.95312L56.0547,-3.61328L56.543,-3.61328L56.543,-4.19922L57.1289,-4.19922L57.1289,-5.37109L56.543,-5.37109L56.543,-5.95703L56.0547,-5.95703L56.0547,-8.30078L56.543,-8.30078L56.543,-10.5469L56.0547,-10.5469L56.0547,-14.6484L56.543,-14.6484L56.543,-18.0664L57.1289,-18.0664L57.1289,-22.6562L56.543,-22.6562L56.543,-26.1719L57.1289,-26.1719L57.1289,-28.418L57.7148,-28.418L57.7148,-29.5898L57.1289,-29.5898L57.1289,-36.5234L56.543,-36.5234L56.543,-37.6953L56.0547,-37.6953L56.0547,-38.2812L54.8828,-38.2812L54.8828,-38.8672L51.3672,-38.8672L51.3672,-38.2812L49.707,-38.2812L49.707,-38.8672L48.5352,-38.8672L48.5352,-38.2812L47.9492,-38.2812L47.9492,-37.6953L47.3633,-37.6953L47.3633,-37.1094L45.6055,-37.1094L45.6055,-37.6953L39.0625,-37.6953L39.0625,-38.2812L38.4766,-38.2812L38.4766,-37.6953L35.0586,-37.6953L35.0586,-37.1094L32.1289,-37.1094L32.1289,-37.6953L31.543,-37.6953L31.543,-38.2812L30.957,-38.2812L30.957,-35.9375L31.543,-35.9375L31.543,-33.6914L30.957,-33.6914L30.957,-31.3477L31.543,-31.3477L31.543,-30.1758L30.957,-30.1758L30.957,-29.0039L30.3711,-29.0039L30.3711,-27.832L30.957,-27.832L30.957,-26.1719L31.543,-26.1719L31.543,-20.9961L30.957,-20.9961L30.957,-20.4102L30.3711,-20.4102L30.3711,-18.0664L30.957,-18.0664L30.957,-15.2344L30.3711,-15.2344L30.3711,-14.6484L29.7852,-14.6484L29.7852,-14.0625L30.3711,-14.0625L30.3711,-13.4766L30.957,-13.4766L30.957,-8.88672L32.1289,-8.88672L32.1289,-9.47266L33.3008,-9.47266L33.3008,-9.96094L33.8867,-9.96094L33.8867,-10.5469L36.1328,-10.5469L36.1328,-12.3047L36.7188,-12.3047L36.7188,-12.8906L40.2344,-12.8906L40.2344,-11.1328L40.8203,-11.1328L40.8203,-10.5469L39.0625,-10.5469L39.0625,-8.30078L38.4766,-8.30078L38.4766,-7.71484L35.6445,-7.71484L35.6445,-7.12891L35.0586,-7.12891L35.0586,-5.95703L35.6445,-5.95703L35.6445,-5.37109L34.4727,-5.37109L34.4727,-4.78516L33.3008,-4.78516L33.3008,-4.19922L32.7148,-4.19922L32.7148,-3.61328L32.1289,-3.61328L32.1289,-3.125L30.957,-3.125L30.957,-2.53906L30.3711,-2.53906L30.3711,-1.95312L29.7852,-1.95312L29.7852,-0.78125L29.2969,-0.78125L29.2969,-0.195312L28.7109,-0.195312L28.7109,0.390625L28.125,0.390625L28.125,0.976562L27.5391,0.976562L27.5391,1.5625L26.9531,1.5625L26.9531,2.14844L25.7812,2.14844L25.7812,2.73438L24.6094,2.73438L24.6094,3.22266L24.0234,3.22266L24.0234,3.80859L23.5352,3.80859L23.5352,4.98047L22.9492,4.98047L22.9492,5.56641L21.1914,5.56641L21.1914,6.15234L20.6055,6.15234L20.6055,5.56641L20.0195,5.56641L20.0195,4.98047L19.4336,4.98047L19.4336,3.80859L18.8477,3.80859L18.8477,3.22266L17.6758,3.22266L17.6758,2.73438L17.1875,2.73438L17.1875,2.14844L16.6016,2.14844L16.6016,1.5625L15.4297,1.5625L15.4297,0.390625L14.8438,0.390625L14.8438,-0.195312L13.6719,-0.195312L13.6719,-1.36719L14.2578,-1.36719L14.2578,-1.95312L14.8438,-1.95312L14.8438,-3.125L15.4297,-3.125L15.4297,-3.61328L17.1875,-3.61328L17.1875,-4.19922L20.6055,-4.19922L20.6055,-4.78516L21.1914,-4.78516L21.1914,-5.37109L21.7773,-5.37109L21.7773,-5.95703L22.3633,-5.95703L22.3633,-9.96094L22.9492,-9.96094L22.9492,-10.5469L22.3633,-10.5469L22.3633,-15.7227L22.9492,-15.7227L22.9492,-18.0664L22.3633,-18.0664L22.3633,-20.9961L22.9492,-20.9961L22.9492,-29.5898L22.3633,-29.5898L22.3633,-31.9336L21.7773,-31.9336L21.7773,-32.5195L22.3633,-32.5195L22.3633,-33.6914L22.9492,-33.6914L22.9492,-35.9375L22.3633,-35.9375L22.3633,-38.2812L22.9492,-38.2812L22.9492,-39.4531L23.5352,-39.4531L23.5352,-41.6992L22.9492,-41.6992L22.9492,-42.2852L21.7773,-42.2852L21.7773,-42.8711L21.1914,-42.8711L21.1914,-43.457L20.0195,-43.457L20.0195,-42.2852L18.8477,-42.2852L18.8477,-42.8711L15.4297,-42.8711L15.4297,-42.2852L13.8672,-42.2852L13.8672,-41.6992L11.0352,-41.6992L11.0352,-41.1133L7.51953,-41.1133L7.51953,-41.6992L7.03125,-41.6992L7.03125,-42.2852L6.44531,-42.2852L6.44531,-42.8711L5.85938,-42.8711L5.85938,-45.2148L5.27344,-45.2148L5.27344,-46.875L4.6875,-46.875L4.6875,-47.4609L4.10156,-47.4609L4.10156,-48.0469L4.6875,-48.0469L4.6875,-49.2188L6.44531,-49.2188L6.44531,-48.6328L8.69141,-48.6328L8.69141,-48.0469L10.4492,-48.0469L10.4492,-47.4609L17.1875,-47.4609L17.1875,-46.875L21.7773,-46.875L21.7773,-47.4609L23.5352,-47.4609L23.5352,-48.0469L24.0234,-48.0469L24.0234,-49.2188L25.7812,-49.2188L25.7812,-49.8047L27.5391,-49.8047L27.5391,-49.2188L28.125,-49.2188L28.125,-48.0469L29.2969,-48.0469L29.2969,-48.6328L31.543,-48.6328L31.543,-48.0469L32.7148,-48.0469L32.7148,-47.4609L33.8867,-47.4609L33.8867,-46.2891L33.3008,-46.2891L33.3008,-45.8008L32.7148,-45.8008L32.7148,-44.6289L34.4727,-44.6289L34.4727,-44.043L35.0586,-44.043L35.0586,-43.457L36.1328,-43.457L36.1328,-44.043L37.3047,-44.043L37.3047,-44.6289L37.8906,-44.6289L37.8906,-44.043L45.0195,-44.043L45.0195,-43.457L46.7773,-43.457L46.7773,-42.8711L47.9492,-42.8711L47.9492,-43.457L50.1953,-43.457L50.1953,-44.043L53.7109,-44.043L53.7109,-43.457L56.0547,-43.457L56.0547,-44.043L56.543,-44.043L56.543,-45.8008L57.7148,-45.8008L57.7148,-46.2891L58.3008,-46.2891L58.3008,-47.4609L57.7148,-47.4609L57.7148,-48.0469L57.1289,-48.0469L57.1289,-50.9766L57.7148,-50.9766L57.7148,-52.1484L57.1289,-52.1484L57.1289,-55.5664L57.7148,-55.5664L57.7148,-56.1523L57.1289,-56.1523L57.1289,-60.1562L56.543,-60.1562L56.543,-65.332L56.0547,-65.332L56.0547,-65.918L55.4688,-65.918L55.4688,-68.8477L56.0547,-68.8477L56.0547,-70.6055L55.4688,-70.6055L55.4688,-72.2656L54.8828,-72.2656L54.8828,-74.6094L55.4688,-74.6094L55.4688,-75.7812L56.0547,-75.7812L56.0547,-76.3672L56.543,-76.3672L56.543,-76.8555L57.1289,-76.8555L57.1289,-77.4414L58.3008,-77.4414L58.3008,-78.0273ZM62.8906,-74.6094L62.8906,-73.4375L63.4766,-73.4375L63.4766,-74.6094L62.8906,-74.6094ZM67.5781,-72.2656L67.5781,-71.6797L68.1641,-71.6797L68.1641,-72.2656L67.5781,-72.2656ZM68.6523,-70.6055L68.6523,-70.0195L69.2383,-70.0195L69.2383,-70.6055L68.6523,-70.6055ZM17.3828,-73.9258L17.9688,-73.9258L17.9688,-73.3398L20.2148,-73.3398L20.2148,-72.7539L23.1445,-72.7539L23.1445,-72.168L24.9023,-72.168L24.9023,-71.582L27.1484,-71.582L27.1484,-70.9961L31.7383,-70.9961L31.7383,-70.4102L35.2539,-70.4102L35.2539,-69.8242L37.0117,-69.8242L37.0117,-69.3359L37.5977,-69.3359L37.5977,-68.75L38.0859,-68.75L38.0859,-68.1641L39.2578,-68.1641L39.2578,-66.9922L38.6719,-66.9922L38.6719,-65.8203L39.2578,-65.8203L39.2578,-64.6484L39.8438,-64.6484L39.8438,-63.4766L39.2578,-63.4766L39.2578,-62.4023L38.6719,-62.4023L38.6719,-60.6445L37.5977,-60.6445L37.5977,-60.0586L35.8398,-60.0586L35.8398,-59.4727L34.668,-59.4727L34.668,-58.3008L34.082,-58.3008L34.082,-57.7148L31.7383,-57.7148L31.7383,-58.3008L31.25,-58.3008L31.25,-58.8867L30.6641,-58.8867L30.6641,-59.4727L28.9062,-59.4727L28.9062,-60.0586L28.3203,-60.0586L28.3203,-60.6445L27.7344,-60.6445L27.7344,-61.2305L26.5625,-61.2305L26.5625,-61.8164L25.4883,-61.8164L25.4883,-62.4023L24.9023,-62.4023L24.9023,-63.4766L24.3164,-63.4766L24.3164,-64.0625L23.1445,-64.0625L23.1445,-63.4766L21.9727,-63.4766L21.9727,-64.0625L20.8008,-64.0625L20.8008,-64.6484L19.6289,-64.6484L19.6289,-65.2344L19.1406,-65.2344L19.1406,-65.8203L18.5547,-65.8203L18.5547,-66.4062L17.3828,-66.4062L17.3828,-66.9922L16.7969,-66.9922L16.7969,-67.5781L15.625,-67.5781L15.625,-68.1641L15.0391,-68.1641L15.0391,-68.75L14.4531,-68.75L14.4531,-69.3359L13.8672,-69.3359L13.8672,-70.9961L15.0391,-70.9961L15.0391,-72.168L15.625,-72.168L15.625,-72.7539L16.7969,-72.7539L16.7969,-73.3398L17.3828,-73.3398L17.3828,-73.9258ZM30.957,-45.2148L30.957,-44.6289L32.1289,-44.6289L32.1289,-45.2148L30.957,-45.2148ZM64.0625,-44.6289L64.0625,-44.043L62.8906,-44.043L62.8906,-43.457L64.6484,-43.457L64.6484,-44.6289L64.0625,-44.6289ZM61.8164,-41.1133L61.8164,-40.5273L61.2305,-40.5273L61.2305,-38.8672L61.8164,-38.8672L61.8164,-39.4531L62.3047,-39.4531L62.3047,-40.0391L62.8906,-40.0391L62.8906,-40.5273L62.3047,-40.5273L62.3047,-41.1133L61.8164,-41.1133ZM46.1914,-40.5273L46.1914,-40.0391L45.6055,-40.0391L45.6055,-39.4531L47.9492,-39.4531L47.9492,-40.0391L46.7773,-40.0391L46.7773,-40.5273L46.1914,-40.5273ZM63.4766,-33.6914L63.4766,-33.1055L62.8906,-33.1055L62.8906,-31.9336L62.3047,-31.9336L62.3047,-30.7617L62.8906,-30.7617L62.8906,-29.5898L63.4766,-29.5898L63.4766,-30.7617L62.8906,-30.7617L62.8906,-31.3477L63.4766,-31.3477L63.4766,-32.5195L64.0625,-32.5195L64.0625,-33.6914L63.4766,-33.6914ZM63.4766,-16.8945L63.4766,-16.3086L64.6484,-16.3086L64.6484,-16.8945L63.4766,-16.8945ZM63.4766,3.80859L63.4766,4.39453L64.0625,4.39453L64.0625,5.56641L64.6484,5.56641L64.6484,3.80859L63.4766,3.80859ZM57.1289,6.73828L57.1289,7.32422L57.7148,7.32422L57.7148,6.73828L57.1289,6.73828Z"></path><path transform="translate(499 100)" d="M30.7617,-77.3438L31.25,-77.3438Q38.6719,-76.0742 38.6719,-74.0234L38.6719,-72.168Q33.5938,-67.1875 33.5938,-65.625Q33.5938,-64.2578 33.1055,-62.4023Q33.1055,-61.7188 33.9844,-57.2266L32.6172,-53.418Q32.6172,-50.3906 38.2812,-49.707L48.5352,-52.0508Q51.4648,-52.0508 54.1992,-58.1055Q54.6875,-58.1055 55.5664,-58.5938Q59.1797,-57.4219 63.9648,-52.0508Q62.5,-48.8281 60.2539,-48.8281L55.5664,-49.707Q51.7578,-48.3398 48.5352,-48.3398L46.1914,-48.3398Q45.1172,-48.3398 44.3359,-48.8281Q42.7734,-47.8516 41.5039,-47.8516L38.2812,-48.3398Q37.1094,-48.3398 33.5938,-44.1406L33.9844,-41.7969L33.9844,-39.8438Q33.9844,-38.8672 33.5938,-37.9883Q33.9844,-37.207 33.9844,-36.1328L33.9844,-34.7656L31.6406,-31.4453Q35.4492,-31.4453 35.4492,-25.8789L36.3281,-25.3906L36.8164,-25.3906Q38.9648,-28.418 41.0156,-33.3008Q39.1602,-34.082 39.1602,-34.7656L39.1602,-35.6445L41.9922,-35.6445Q41.9922,-37.4023 43.8477,-41.3086Q43.8477,-42.7734 46.1914,-44.1406L46.6797,-44.1406Q51.5625,-39.4531 53.7109,-39.4531L55.0781,-37.5L55.0781,-36.6211Q54.9805,-35.8398 48.0469,-32.4219Q48.0469,-31.4453 46.6797,-31.4453Q47.6562,-29.8828 47.6562,-28.6133Q39.1602,-15.2344 39.1602,-14.1602Q46.4844,-4.29688 49.9023,-4.29688Q49.9023,-3.22266 54.1992,-0.976562Q61.6211,-9.375 62.1094,-9.47266L63.0859,-9.47266Q63.7695,-9.47266 64.4531,-8.00781Q61.2305,-0 61.2305,0.878906L61.2305,1.75781L63.5742,5.07812L63.5742,5.56641Q62.207,9.27734 56.0547,9.27734Q45.9961,5.76172 41.5039,-0.0976562Q41.5039,-0.878906 33.9844,-8.98438L32.6172,-8.98438L20.8984,-0.0976562Q13.3789,2.14844 8.78906,6.44531Q7.22656,7.42188 6.44531,7.42188L5.46875,5.95703L5.46875,4.10156Q6.93359,1.75781 14.3555,-1.95312Q21.1914,-6.34766 28.418,-14.1602Q30.1758,-14.1602 30.7617,-18.3594Q29.4922,-19.9219 28.418,-28.2227Q29.3945,-29.6875 29.3945,-30.5664Q28.418,-30.5664 27.9297,-35.6445L28.418,-36.6211L27.9297,-39.4531L27.9297,-39.8438L28.9062,-41.3086Q27.6367,-41.3086 27.0508,-46.4844Q24.707,-46.4844 24.707,-47.3633L9.66797,-45.0195L8.30078,-46.875L8.30078,-47.8516Q8.30078,-48.8281 12.0117,-49.707Q16.9922,-48.8281 20.0195,-48.8281Q27.4414,-49.1211 27.4414,-52.0508L26.5625,-67.4805Q27.0508,-68.3594 27.0508,-69.3359Q26.2695,-69.3359 25.5859,-71.2891L26.5625,-73.1445L26.0742,-75.9766Q28.5156,-77.3438 30.7617,-77.3438ZM84.082,-76.3672L86.4258,-76.3672Q94.9219,-73.7305 94.9219,-72.168L94.9219,-71.6797Q92.0898,-66.2109 92.0898,-60.0586L92.0898,-58.1055Q91.4062,-58.1055 89.2578,-55.3711L89.2578,-54.8828Q91.7969,-54.8828 92.5781,-49.707Q91.6016,-47.8516 91.6016,-44.5312L91.6016,-44.1406L92.0898,-40.8203Q91.1133,-40.7227 91.1133,-39.8438L92.0898,-38.4766Q91.6016,-35.2539 91.6016,-33.3008Q91.6016,-32.8125 92.0898,-31.9336L91.6016,-29.1016L92.0898,-26.2695Q91.6016,-23.8281 91.6016,-21.582L91.6016,-21.1914Q91.6016,-20.1172 92.0898,-19.2383Q91.6016,-17.8711 91.1133,-17.8711L91.6016,-13.1836L91.6016,-12.3047Q91.6016,-7.61719 90.7227,-2.92969Q91.6016,-2.92969 91.6016,-1.46484Q91.6016,5.56641 79.8828,8.78906L77.1484,8.78906L70.1172,0.878906L70.1172,0.390625Q70.1172,-0.292969 71.4844,-0.976562L72.8516,-0.976562Q75.5859,-0.976562 80.3711,-0.585938Q84.5703,-1.75781 84.5703,-7.12891Q84.082,-9.57031 84.082,-11.8164Q85.0586,-11.8164 85.0586,-12.6953Q84.082,-15.7227 84.082,-16.5039Q85.0586,-16.5039 85.0586,-17.3828Q85.0586,-18.8477 84.5703,-20.7031L85.0586,-25.3906Q84.082,-35.4492 84.082,-36.6211L84.5703,-38.4766Q83.6914,-40.8203 83.6914,-41.7969L85.5469,-50.1953Q84.082,-50.6836 84.082,-53.0273L84.082,-57.2266Q84.082,-58.7891 83.6914,-59.5703L84.5703,-67.4805L82.7148,-73.1445L82.7148,-75Q82.7148,-75.6836 84.082,-76.3672ZM66.7969,-71.2891Q76.6602,-69.4336 76.6602,-67.4805L76.6602,-67.0898Q76.6602,-65.5273 72.8516,-60.4492L72.4609,-58.1055Q73.8281,-58.1055 73.8281,-57.2266L73.8281,-52.0508Q73.8281,-51.5625 73.3398,-51.5625Q73.8281,-50.6836 73.8281,-50.1953L73.3398,-49.2188L73.8281,-48.3398Q73.3398,-45.0195 73.3398,-42.6758Q73.3398,-42.1875 73.8281,-41.3086L73.3398,-38.4766L73.3398,-32.9102L72.8516,-30.5664Q73.8281,-30.3711 73.8281,-29.5898L73.8281,-21.582L73.3398,-18.8477Q73.8281,-18.0664 73.8281,-16.5039Q73.0469,-14.3555 70.5078,-12.6953L70.1172,-12.6953Q65.918,-12.6953 65.918,-15.5273Q66.9922,-21.6797 67.7734,-23.0469Q66.9922,-23.9258 66.3086,-31.4453L67.2852,-39.8438L66.7969,-42.6758Q66.7969,-42.9688 67.2852,-48.8281L66.7969,-51.1719L67.2852,-52.0508Q67.2852,-52.5391 66.7969,-52.5391L67.2852,-55.7617L67.2852,-57.2266Q67.2852,-58.3008 66.7969,-59.082L67.2852,-60.0586Q65.918,-63.0859 65.918,-64.2578L65.918,-65.1367Q65.918,-65.625 66.3086,-65.625Q64.4531,-69.1406 64.4531,-70.3125Q66.0156,-71.2891 66.7969,-71.2891ZM43.8477,-67.4805Q47.2656,-67.4805 50.3906,-63.2812L50.3906,-62.793Q50.3906,-58.9844 46.6797,-56.7383Q42.7734,-56.7383 39.6484,-62.793Q38.9648,-62.793 36.8164,-65.625Q36.8164,-66.3086 38.2812,-67.0898L41.0156,-67.0898L43.8477,-67.4805Z"></path><path transform="translate(0 200)" d="M8.30078,-67.9688L13.7695,-67.9688Q14.3555,-67.2852 19.1406,-66.6992Q19.1406,-66.3086 19.6289,-66.3086L21.6797,-66.3086L22.9492,-67.0898L31.7383,-67.0898L32.9102,-66.3086L37.1094,-66.3086L38.3789,-67.0898L41.3086,-67.0898L42.5781,-66.3086L45.8984,-66.3086L47.168,-67.0898L52.1484,-67.0898Q58.3984,-63.2812 58.3984,-60.4492Q59.9609,-60.4492 60.8398,-53.418Q61.3281,-53.418 61.3281,-52.9297Q58.5938,-48.8281 57.5195,-48.8281L56.7383,-48.8281Q53.8086,-49.6094 52.9297,-52.5391Q52.3438,-52.5391 49.6094,-55.4688Q48.9258,-55.4688 46.2891,-57.5195Q45.8008,-57.5195 41.6992,-59.1797L37.5,-59.1797Q37.5,-58.2031 36.7188,-57.1289L36.7188,-43.3594L37.5,-42.0898L37.5,-40.0391L36.7188,-38.7695L36.7188,-15.8203L37.5,-14.5508L37.5,-10.4492Q39.2578,-10.4492 42.9688,-7.51953Q44.043,-7.51953 45.0195,-4.98047L45.0195,-3.71094Q43.2617,-0.878906 42.5781,-0.878906L39.6484,-0.878906Q38.6719,-0.878906 37.9883,-0.390625Q37.207,-0.878906 36.2305,-0.878906L34.1797,-0.878906L32.9102,-0Q32.9102,-0.878906 32.1289,-0.878906L31.25,-0.878906L29.9805,-0L26.6602,-0L25.3906,-0.878906L24.2188,-0L16.3086,-0Q13.4766,-1.66016 12.5,-4.58984L12.5,-5.85938Q12.5,-6.54297 16.6992,-9.17969Q16.6992,-9.57031 17.0898,-9.57031L21.6797,-9.57031Q22.2656,-9.57031 22.9492,-10.8398L22.9492,-12.8906L22.0703,-14.1602L22.0703,-16.3086L22.9492,-17.4805L22.9492,-19.6289L22.0703,-20.8008L22.0703,-22.9492L22.9492,-24.2188L22.9492,-47.168Q22.9492,-47.9492 24.2188,-47.9492L24.2188,-58.3984L12.8906,-58.3984Q9.66797,-53.9062 8.78906,-53.8086Q8.78906,-51.2695 6.25,-51.2695L4.19922,-49.6094Q3.71094,-50.3906 3.71094,-50.8789L1.66016,-50.8789Q0.878906,-50.8789 0.390625,-55.8594Q0,-55.8594 0,-56.25L0,-56.7383Q1.17188,-60.4492 1.66016,-60.4492L2.05078,-60.4492L2.05078,-62.5Q5.95703,-67.0898 8.30078,-67.9688Z"></path><path transform="translate(62 200)" d="M10.0586,-67.1875L12.0117,-66.3086L16.6016,-66.8945Q17.6758,-65.8203 17.6758,-62.1094Q17.6758,-61.9141 17.3828,-58.3984L17.6758,-56.4453Q16.0156,-54.1992 16.0156,-53.3203L16.0156,-52.4414Q17.6758,-48.5352 17.6758,-47.3633L17.3828,-45.3125L17.6758,-43.3594L17.3828,-41.4062Q18.2617,-35.6445 18.2617,-34.5703L19.1406,-34.5703Q23.5352,-40.8203 26.4648,-40.8203Q28.5156,-40.8203 31.3477,-41.9922L32.1289,-41.9922Q35.5469,-41.9922 35.5469,-39.9414Q36.5234,-39.9414 37.0117,-39.6484Q37.9883,-40.2344 39.2578,-40.2344Q43.5547,-37.793 44.9219,-33.4961L44.9219,-26.6602Q44.9219,-25.5859 44.6289,-24.1211Q44.9219,-23.6328 44.9219,-22.9492Q44.9219,-21.9727 44.6289,-20.4102Q44.9219,-13.2812 45.5078,-9.375L45.5078,-7.32422Q48.5352,-5.76172 49.707,-4.49219Q50.8789,-2.24609 50.8789,-1.46484Q50.3906,0.292969 47.4609,0.292969Q45.8008,-0.488281 36.7188,-1.46484Q36.7188,-1.66016 35.8398,-1.66016Q34.9609,-1.17188 34.1797,-1.17188L33.5938,-1.17188Q32.1289,-1.85547 32.1289,-3.41797L32.1289,-4.00391Q32.5195,-4.29688 34.7656,-5.37109Q35.5469,-7.03125 36.7188,-19.043L36.7188,-21.582Q36.1328,-25.6836 36.1328,-26.0742L36.1328,-31.1523Q36.1328,-31.4453 36.4258,-31.4453Q36.4258,-36.0352 29.0039,-38.5742Q21.6797,-35.3516 21.6797,-34.5703Q17.3828,-24.707 17.3828,-23.8281L17.6758,-22.0703Q17.3828,-18.9453 17.3828,-16.4062Q18.457,-10.5469 19.1406,-9.66797L19.1406,-9.08203L18.8477,-7.12891Q24.4141,-4.19922 25.0977,-2.24609Q24.4141,-0.585938 23.1445,-0.585938Q21.7773,-0.585938 14.5508,-0.878906Q12.793,-0.292969 12.0117,-0.292969L8.10547,-0.292969Q4.10156,-0.292969 4.10156,-1.46484L4.10156,-2.24609Q4.10156,-3.22266 8.39844,-4.49219Q9.76562,-4.49219 10.3516,-13.0859Q9.47266,-14.6484 9.47266,-15.332Q9.47266,-16.3086 9.76562,-17.8711L9.17969,-28.9062L9.76562,-33.4961Q9.47266,-33.9844 9.17969,-36.0352Q9.47266,-37.1094 9.47266,-37.9883L8.59375,-38.5742Q8.59375,-39.4531 8.88672,-40.5273Q8.59375,-45.8008 8.59375,-49.9023L8.59375,-51.2695Q8.59375,-51.8555 9.17969,-54.1016Q9.17969,-56.1523 8.59375,-56.1523L8.88672,-57.5195L8.88672,-58.3984Q8.88672,-59.5703 7.8125,-63.1836L3.22266,-63.1836Q1.75781,-63.1836 1.26953,-64.3555L1.26953,-65.2344Q1.75781,-66.3086 3.22266,-66.3086L4.6875,-66.3086Q5.66406,-66.3086 7.22656,-66.0156L10.0586,-67.1875Z"></path><path transform="translate(117 200)" d="M15.8203,-43.8477L19.9219,-43.3594Q20.3125,-43.3594 22.6562,-43.8477Q29.2969,-43.8477 37.6953,-35.6445Q39.2578,-35.6445 42.2852,-25.0977Q41.3086,-20.9961 40.0391,-20.9961Q23.2422,-22.8516 21.2891,-22.8516Q10.3516,-22.3633 10.3516,-20.1172L10.3516,-19.6289Q12.207,-19.4336 12.207,-18.2617L12.207,-13.6719Q15.2344,-7.32422 17.1875,-7.32422Q18.9453,-7.32422 21.2891,-4.98047L22.168,-4.98047Q25.5859,-4.98047 33.2031,-11.9141L33.5938,-11.9141L33.5938,-12.3047L32.7148,-13.6719L32.7148,-15.5273Q35.8398,-19.6289 36.8164,-19.6289Q41.4062,-17.3828 41.4062,-16.4062L41.4062,-16.0156Q41.4062,-12.793 39.1602,-12.793L39.1602,-12.3047Q39.1602,-2.14844 22.168,-0L18.5547,-0Q6.64062,-0 4.39453,-10.0586Q1.66016,-12.5977 1.66016,-16.0156Q1.66016,-16.9922 2.14844,-17.7734Q1.66016,-18.5547 1.66016,-20.1172Q1.66016,-22.0703 2.53906,-24.2188Q1.66016,-25.6836 1.66016,-26.9531L1.66016,-27.4414L2.53906,-28.8086Q2.14844,-31.25 2.14844,-32.9102Q10.5469,-43.8477 15.8203,-43.8477ZM12.207,-30.1758L12.207,-28.3203Q12.5977,-26.9531 14.9414,-26.9531L21.2891,-26.9531L24.5117,-27.832L29.1016,-27.4414Q29.1992,-28.3203 29.9805,-28.3203Q27.2461,-32.3242 26.3672,-36.5234Q21.1914,-39.2578 19.4336,-39.2578Q13.0859,-39.2578 13.0859,-32.4219Q12.3047,-32.4219 12.207,-30.1758Z"></path><path transform="translate(161 200)" d=""></path><path transform="translate(194 200)" d="M27.9297,-68.6523L29.1992,-68.6523Q30.0781,-68.6523 30.0781,-67.2852L38.5742,-67.2852L39.8438,-66.4062L47.3633,-66.4062Q49.3164,-64.6484 57.1289,-60.2539Q58.3008,-56.8359 59.7656,-55.3711L59.7656,-41.6016Q56.7383,-37.5 56.7383,-37.207Q55.3711,-35.8398 53.6133,-35.8398L53.6133,-33.6914Q50.7812,-32.0312 49.6094,-30.5664Q48.6328,-30.5664 47.8516,-30.0781Q46.9727,-30.5664 46.4844,-30.5664Q46.4844,-29.6875 45.6055,-29.6875L39.8438,-29.6875L38.5742,-28.8086Q38.5742,-29.6875 37.6953,-29.6875L32.8125,-29.6875L31.4453,-28.8086L27.0508,-28.8086L25.6836,-29.6875L24.3164,-29.6875Q23.7305,-29.6875 23.0469,-28.3203L23.0469,-16.7969L23.9258,-15.5273L23.0469,-14.1602L23.0469,-11.9141L23.9258,-10.6445Q23.0469,-10.4492 23.0469,-9.76562L23.0469,-9.27734Q27.0508,-8.59375 27.0508,-7.12891L33.2031,-7.12891Q33.7891,-7.12891 36.3281,-3.51562Q35.3516,-3.51562 32.3242,-0L17.6758,-0Q16.7969,-0 16.7969,-1.36719L14.6484,-1.36719Q14.6484,-0 13.7695,-0L11.5234,-0Q10.6445,-0 10.6445,-1.36719L8.88672,-1.36719Q8.88672,-0 8.00781,-0L1.36719,-0Q0.976562,-0 0,-1.36719Q0.488281,-7.12891 2.63672,-7.12891L9.76562,-7.12891Q10.0586,-9.27734 11.9141,-9.27734L11.9141,-10.1562Q10.6445,-10.1562 10.6445,-11.0352L10.6445,-16.4062Q10.6445,-17.2852 11.9141,-17.2852L11.9141,-18.5547Q10.6445,-18.5547 10.6445,-19.5312L10.6445,-34.9609Q10.6445,-35.8398 11.9141,-35.8398L11.9141,-39.8438L12.8906,-41.2109L12.8906,-42.4805Q11.5234,-45.6055 10.6445,-45.6055L10.6445,-48.2422Q10.6445,-49.1211 11.9141,-49.1211L11.9141,-51.3672L12.8906,-52.7344L11.9141,-54.0039L11.9141,-56.25Q10.4492,-56.25 10.1562,-60.6445Q9.76562,-60.6445 9.76562,-61.1328L9.76562,-65.5273Q9.76562,-66.2109 11.5234,-67.2852L13.7695,-67.2852L15.0391,-66.4062L15.5273,-66.4062L16.7969,-67.2852L27.0508,-67.2852Q27.0508,-68.6523 27.9297,-68.6523ZM26.1719,-62.5Q26.1719,-61.1328 24.8047,-61.1328L24.8047,-60.2539Q26.1719,-60.2539 26.1719,-59.375Q26.1719,-58.4961 23.9258,-58.4961L23.9258,-54.0039L23.0469,-52.7344L23.0469,-52.2461Q23.0469,-50.9766 23.4375,-50.9766L23.0469,-48.7305L23.0469,-39.4531Q24.5117,-35.8398 25.293,-35.8398L25.6836,-35.8398Q27.0508,-35.8398 27.0508,-36.3281L29.1992,-35.8398L35.4492,-35.8398L36.7188,-34.9609L38.9648,-34.9609Q44.4336,-39.0625 47.3633,-45.6055L47.3633,-52.7344L46.4844,-54.0039L46.4844,-56.25Q44.8242,-56.25 43.8477,-57.1289L37.207,-57.1289Q36.3281,-57.1289 36.3281,-58.4961L31.9336,-58.4961L30.5664,-59.375L29.1992,-58.4961L27.9297,-58.4961Q27.0508,-58.4961 27.0508,-59.375L27.0508,-62.5L26.1719,-62.5Z"></path><path transform="translate(253 200)" d="M35.0586,-43.8477Q37.0117,-43.8477 38.4766,-37.5977Q38.4766,-32.7148 35.5469,-31.8359L34.1797,-31.8359L29.2969,-36.1328L27.4414,-36.1328Q26.4648,-36.1328 24.0234,-29.9805L22.168,-28.0273L22.6562,-27.0508L22.6562,-25.5859Q22.6562,-24.6094 21.6797,-24.6094Q22.168,-21.9727 22.168,-20.8008L21.6797,-17.4805Q22.6562,-14.8438 23.5352,-9.27734Q22.6562,-6.15234 22.6562,-4.98047Q24.2188,-4.98047 25,-5.46875Q25.293,-5.46875 26.9531,-4.98047Q29.5898,-5.46875 30.7617,-5.46875Q32.0312,-5.46875 33.2031,-3.02734Q31.9336,-0.195312 29.7852,-0.195312Q23.5352,-0.683594 19.7266,-0.683594L17.3828,-0.683594Q16.8945,-0.683594 16.8945,-1.17188Q11.4258,0.292969 7.71484,0.292969Q4.39453,-1.07422 4.39453,-4.00391Q4.88281,-5.46875 7.22656,-5.46875L8.20312,-5.46875L12.9883,-4.98047Q13.3789,-8.30078 13.9648,-8.30078Q13.3789,-13.4766 12.9883,-14.5508Q13.4766,-15.4297 13.4766,-16.5039Q13.0859,-16.5039 12.1094,-17.9688L12.5,-20.3125L12.5,-24.2188L13.4766,-25.5859Q12.1094,-27.4414 12.1094,-28.5156L12.5,-30.3711L12.1094,-32.8125L12.9883,-35.2539L12.1094,-35.6445L5.37109,-35.6445Q4.6875,-35.6445 3.90625,-37.1094Q3.90625,-41.0156 5.85938,-41.0156Q6.34766,-41.0156 7.22656,-40.5273Q14.4531,-42.3828 18.2617,-42.3828Q21.6797,-42.3828 22.6562,-36.6211L23.1445,-36.6211Q27.3438,-42.1875 34.1797,-43.8477L35.0586,-43.8477Z"></path><path transform="translate(295 200)" d="M23.6328,-42.8711L24.9023,-42.8711Q34.1797,-42.8711 40.0391,-27.7344Q41.8945,-26.6602 42.5781,-24.8047Q42.1875,-22.5586 42.1875,-22.2656Q42.1875,-20.9961 42.9688,-18.9453Q41.8945,-14.5508 39.6484,-11.8164Q39.6484,-8.49609 35.4492,-6.73828Q35.4492,-2.14844 21.582,-0L21.1914,-0Q6.73828,-0 0.976562,-16.7969L1.85547,-18.457Q1.36719,-23.0469 1.36719,-26.4648Q2.63672,-31.25 8.10547,-37.793Q13.9648,-42.1875 23.6328,-42.8711ZM9.76562,-30.6641L9.375,-29.8828L9.76562,-29.8828Q10.4492,-29.8828 11.0352,-28.6133L11.0352,-28.125Q11.0352,-26.7578 9.76562,-25.1953Q11.0352,-23.5352 11.5234,-18.0664L11.0352,-15.5273Q14.3555,-5.07812 18.6523,-5.07812L21.1914,-5.07812Q26.9531,-5.07812 28.3203,-8.39844Q31.25,-11.1328 31.25,-24.8047Q31.25,-25.6836 30.3711,-30.6641L30.8594,-30.6641Q29.1016,-32.9102 28.7109,-36.1328Q23.5352,-39.0625 21.9727,-39.0625L20.7031,-39.0625Q14.8438,-39.0625 10.6445,-31.0547L9.76562,-30.6641Z"></path><path transform="translate(339 200)" d="M20.5078,-68.6523Q28.7109,-67.9688 28.7109,-63.8672Q28.7109,-57.7148 20.5078,-56.3477L20.1172,-56.3477Q15.7227,-58.8867 15.7227,-61.8164Q15.7227,-65.1367 20.5078,-68.6523ZM25.9766,-48.8281L26.9531,-48.8281Q28.0273,-48.8281 28.3203,-44.7266Q26.9531,-42.3828 26.6602,-35.8398Q26.2695,-35.8398 26.2695,-35.5469Q26.2695,-34.8633 26.9531,-33.1055L26.2695,-30.7617L26.6602,-27.3438L26.2695,-24.2188L26.6602,-22.8516L26.2695,-19.8242Q26.6602,-15.7227 26.6602,-13.9648L26.2695,-10.9375Q26.9531,-9.76562 26.9531,-8.88672Q26.9531,-7.12891 26.2695,-7.12891Q26.2695,-6.73828 26.6602,-6.15234L26.2695,-3.02734L26.6602,-0.683594Q25.9766,5.66406 24.6094,7.51953Q24.6094,8.69141 21.875,12.9883Q21.875,14.7461 16.0156,18.8477L12.9883,18.8477Q10.5469,19.5312 10.2539,19.5312Q8.49609,19.5312 7.12891,15.4297L7.51953,13.6719L7.12891,12.0117Q7.12891,9.96094 9.86328,9.57031L10.2539,9.57031Q12.9883,9.57031 12.9883,12.6953L12.9883,14.7461Q14.5508,14.7461 17.3828,12.0117L17.3828,10.6445L18.457,3.41797Q17.3828,1.07422 17.3828,-0L18.457,-3.41797L18.457,-3.71094Q18.457,-7.12891 18.75,-12.3047L17.7734,-16.0156Q17.7734,-16.7969 18.0664,-17.3828Q17.7734,-19.7266 17.7734,-21.1914L17.7734,-21.4844Q17.7734,-21.7773 18.457,-24.2188Q17.7734,-25.293 17.7734,-26.2695L17.7734,-26.6602Q17.7734,-30.4688 18.0664,-33.7891Q17.7734,-41.6992 16.6992,-41.6992Q15.8203,-41.6992 12.3047,-40.332Q8.88672,-41.2109 8.88672,-43.75Q8.88672,-44.9219 13.6719,-45.8008L13.9648,-45.8008Q15.2344,-45.8008 17.0898,-45.4102L23.5352,-46.7773Q23.5352,-48.8281 25.9766,-48.8281Z"></path><path transform="translate(375 200)" d="M15.8203,-43.8477L19.9219,-43.3594Q20.3125,-43.3594 22.6562,-43.8477Q29.2969,-43.8477 37.6953,-35.6445Q39.2578,-35.6445 42.2852,-25.0977Q41.3086,-20.9961 40.0391,-20.9961Q23.2422,-22.8516 21.2891,-22.8516Q10.3516,-22.3633 10.3516,-20.1172L10.3516,-19.6289Q12.207,-19.4336 12.207,-18.2617L12.207,-13.6719Q15.2344,-7.32422 17.1875,-7.32422Q18.9453,-7.32422 21.2891,-4.98047L22.168,-4.98047Q25.5859,-4.98047 33.2031,-11.9141L33.5938,-11.9141L33.5938,-12.3047L32.7148,-13.6719L32.7148,-15.5273Q35.8398,-19.6289 36.8164,-19.6289Q41.4062,-17.3828 41.4062,-16.4062L41.4062,-16.0156Q41.4062,-12.793 39.1602,-12.793L39.1602,-12.3047Q39.1602,-2.14844 22.168,-0L18.5547,-0Q6.64062,-0 4.39453,-10.0586Q1.66016,-12.5977 1.66016,-16.0156Q1.66016,-16.9922 2.14844,-17.7734Q1.66016,-18.5547 1.66016,-20.1172Q1.66016,-22.0703 2.53906,-24.2188Q1.66016,-25.6836 1.66016,-26.9531L1.66016,-27.4414L2.53906,-28.8086Q2.14844,-31.25 2.14844,-32.9102Q10.5469,-43.8477 15.8203,-43.8477ZM12.207,-30.1758L12.207,-28.3203Q12.5977,-26.9531 14.9414,-26.9531L21.2891,-26.9531L24.5117,-27.832L29.1016,-27.4414Q29.1992,-28.3203 29.9805,-28.3203Q27.2461,-32.3242 26.3672,-36.5234Q21.1914,-39.2578 19.4336,-39.2578Q13.0859,-39.2578 13.0859,-32.4219Q12.3047,-32.4219 12.207,-30.1758Z"></path><path transform="translate(419 200)" d="M31.7383,-44.1406Q36.2305,-42.7734 38.1836,-40.918Q41.4062,-39.5508 41.4062,-35.0586Q41.6016,-35.0586 41.6016,-34.4727Q41.0156,-32.6172 40.8203,-32.6172Q41.6016,-30.8594 41.6016,-30.2734Q41.6016,-28.418 36.8164,-28.125Q36.8164,-27.7344 33.3008,-27.2461Q29.1016,-27.2461 29.1016,-33.2031Q28.8086,-33.2031 28.8086,-33.6914Q30.0781,-37.9883 30.0781,-38.7695L30.0781,-39.0625Q29.9805,-39.8438 28.0273,-39.8438L27.1484,-39.8438Q26.3672,-39.8438 23.4375,-38.4766Q19.1406,-38.4766 19.1406,-36.9141Q16.5039,-33.9844 16.5039,-29.6875Q15.8203,-29.0039 15.7227,-27.0508Q16.2109,-24.6094 16.2109,-24.3164L15.1367,-19.5312Q16.1133,-12.3047 16.9922,-12.3047Q17.7734,-11.2305 18.0664,-8.00781Q21.0938,-5.07812 23.7305,-4.78516Q30.6641,-6.05469 30.6641,-8.00781Q31.1523,-8.00781 31.1523,-9.375L31.1523,-11.8164L29.8828,-13.3789L29.8828,-13.8672Q30.4688,-14.4531 31.4453,-18.1641Q32.9102,-19.5312 33.5938,-19.5312Q36.6211,-19.5312 38.6719,-16.3086Q38.8672,-16.3086 40.5273,-14.4531L40.5273,-12.3047Q40.5273,-7.61719 36.2305,-5.07812Q35.1562,-2.63672 31.1523,-0.488281L29.8828,-0.488281L28.2227,-0.78125Q26.4648,-0 25.8789,-0L25.293,-0Q24.707,-0 20.8008,-1.85547L19.4336,-1.5625Q17.5781,-2.73438 14.8438,-3.51562Q14.8438,-4.6875 12.207,-5.66406Q7.61719,-9.17969 7.61719,-10.7422Q7.61719,-12.793 6.05469,-14.4531Q4.98047,-16.8945 4.98047,-17.9688L4.98047,-18.9453Q4.98047,-19.8242 5.76172,-21.0938Q5.76172,-21.6797 3.90625,-24.9023L3.90625,-25.1953Q3.90625,-25.6836 8.69141,-35.0586Q8.69141,-35.3516 11.1328,-37.5Q11.1328,-38.8672 14.8438,-40.1367Q14.8438,-42.1875 22.3633,-43.8477L25.293,-43.8477Q27.9297,-43.8477 31.7383,-44.1406Z"></path><path transform="translate(464 200)" d="M14.0625,-54.5898L19.7266,-54.5898Q22.8516,-54.5898 22.8516,-51.7578Q22.2656,-44.2383 21.582,-42.5781Q21.9727,-41.9922 21.9727,-41.6016L23.8281,-41.6016Q24.3164,-41.6016 25.0977,-45.1172L27.9297,-47.3633L28.6133,-47.3633Q32.3242,-45.4102 32.3242,-42.2852Q32.7148,-42.2852 32.7148,-41.9922L32.7148,-41.3086Q32.2266,-36.6211 29.1992,-36.6211Q29.1992,-37.0117 28.2227,-37.5L26.9531,-37.5Q22.8516,-37.1094 22.8516,-35.3516Q22.5586,-33.1055 22.5586,-32.8125Q22.5586,-32.1289 22.8516,-31.543Q22.5586,-28.8086 22.5586,-27.1484L22.5586,-23.3398L23.5352,-18.8477Q22.5586,-12.5977 22.5586,-11.0352Q22.5586,-5.46875 25.3906,-2.83203L26.0742,-2.83203Q26.9531,-2.83203 26.9531,-4.00391L26.6602,-6.25Q27.6367,-10.0586 29.4922,-10.0586Q29.4922,-10.3516 30.7617,-11.0352L31.0547,-11.0352Q32.8125,-11.0352 34.2773,-3.71094Q32.8125,1.66016 22.5586,1.95312L21.2891,1.95312Q18.0664,1.95312 13.3789,-4.98047L13.3789,-7.8125Q13.3789,-10.9375 12.793,-18.5547Q13.3789,-19.6289 13.3789,-20.5078L13.3789,-20.8008Q11.8164,-22.8516 11.8164,-23.9258L11.8164,-24.2188Q11.8164,-28.125 14.0625,-32.8125Q14.0625,-34.5703 14.3555,-34.9609Q14.3555,-35.4492 13.0859,-36.6211L10.8398,-36.2305L9.96094,-36.2305Q8.39844,-36.2305 8.39844,-36.9141L7.71484,-36.6211L6.44531,-36.6211Q5.46875,-36.6211 4.88281,-40.332Q4.88281,-41.9922 6.44531,-42.8711L6.73828,-42.8711Q10.8398,-41.9922 11.2305,-41.9922L11.8164,-41.9922Q11.8164,-42.6758 13.0859,-43.8477Q11.5234,-46.3867 11.5234,-52.3438Q13.3789,-54.3945 14.0625,-54.5898Z"></path><path transform="translate(503 200)" d=""></path><path transform="translate(536 200)" d="M49.4141,-67.9688Q53.125,-67.3828 54.1992,-66.5039Q55.0781,-66.9922 55.5664,-66.9922Q55.5664,-66.5039 58.9844,-64.6484Q58.9844,-61.8164 61.8164,-59.8633L61.8164,-55.5664Q59.082,-53.2227 56.543,-53.2227Q52.7344,-56.543 52.7344,-59.375L52.2461,-59.375Q51.1719,-59.375 50.3906,-58.9844Q49.4141,-59.375 48.9258,-59.375Q48.9258,-58.4961 48.0469,-58.4961L39.4531,-58.4961L37.9883,-57.5195L32.8125,-57.5195L31.3477,-58.4961L30.3711,-58.4961L29.0039,-57.5195L28.0273,-57.5195L26.6602,-58.4961L26.1719,-58.4961L24.707,-57.5195L22.8516,-57.5195L21.3867,-58.4961L20.8984,-58.4961L20.8984,-56.543Q22.3633,-56.543 22.3633,-56.0547Q21.875,-55.1758 21.875,-54.6875Q22.6562,-54.6875 23.2422,-52.2461Q22.8516,-51.4648 22.8516,-50.3906L23.7305,-48.9258L23.7305,-41.3086Q23.7305,-40.625 25.1953,-39.9414L29.9805,-39.9414L31.3477,-38.9648L32.3242,-38.9648L39.4531,-41.3086Q40.5273,-43.9453 41.7969,-49.4141L42.7734,-49.9023L44.7266,-49.9023L48.9258,-42.7734L48.9258,-35.1562L49.9023,-33.7891L49.9023,-24.707Q47.9492,-21.9727 45.6055,-20.8984L44.7266,-20.8984Q41.3086,-22.8516 41.3086,-27.0508Q41.3086,-32.0312 34.668,-33.3008L34.668,-34.668L33.7891,-34.668Q33.7891,-32.8125 30.8594,-31.8359L29.4922,-32.8125Q29.0039,-32.8125 29.0039,-32.3242L26.6602,-32.8125L26.1719,-32.8125Q25.4883,-32.8125 24.707,-31.3477L24.707,-15.2344Q27.0508,-12.207 27.0508,-9.96094L30.3711,-9.96094L31.8359,-10.9375L34.668,-10.9375Q38.9648,-9.57031 38.9648,-8.98438Q38.9648,-8.30078 39.9414,-7.12891L39.9414,-3.80859Q39.9414,-3.32031 33.7891,-0L29.9805,-0L28.5156,-0.976562L11.4258,-0.976562L9.96094,-0L4.78516,-0Q3.80859,-0 1.85547,-3.80859L1.85547,-6.15234Q1.85547,-7.71484 6.64062,-8.59375Q6.64062,-8.98438 7.12891,-8.98438L11.9141,-8.98438Q11.9141,-10.2539 12.793,-11.4258L12.793,-19.5312L11.9141,-20.8984L11.9141,-23.7305L12.793,-25.1953L12.793,-31.3477L11.9141,-32.8125L11.9141,-33.7891L12.793,-35.1562L12.793,-39.4531L11.9141,-40.918L11.9141,-54.1992Q10.9375,-56.543 8.59375,-57.5195Q8.10547,-57.5195 8.10547,-57.0312Q0,-57.7148 0,-60.3516L0,-65.625Q0.195312,-66.5039 0.976562,-66.5039L12.4023,-66.5039L13.7695,-67.4805Q14.9414,-66.5039 15.7227,-66.5039Q16.1133,-66.5039 16.1133,-66.9922Q20.3125,-66.5039 21.3867,-65.625L26.6602,-67.4805Q26.7578,-66.5039 27.5391,-66.5039L31.3477,-66.5039L32.8125,-67.4805L37.1094,-67.4805L38.4766,-66.5039L44.2383,-66.5039Q45.3125,-67.3828 49.4141,-67.9688Z"></path><path transform="translate(598 200)" d="M23.6328,-42.8711L24.9023,-42.8711Q34.1797,-42.8711 40.0391,-27.7344Q41.8945,-26.6602 42.5781,-24.8047Q42.1875,-22.5586 42.1875,-22.2656Q42.1875,-20.9961 42.9688,-18.9453Q41.8945,-14.5508 39.6484,-11.8164Q39.6484,-8.49609 35.4492,-6.73828Q35.4492,-2.14844 21.582,-0L21.1914,-0Q6.73828,-0 0.976562,-16.7969L1.85547,-18.457Q1.36719,-23.0469 1.36719,-26.4648Q2.63672,-31.25 8.10547,-37.793Q13.9648,-42.1875 23.6328,-42.8711ZM9.76562,-30.6641L9.375,-29.8828L9.76562,-29.8828Q10.4492,-29.8828 11.0352,-28.6133L11.0352,-28.125Q11.0352,-26.7578 9.76562,-25.1953Q11.0352,-23.5352 11.5234,-18.0664L11.0352,-15.5273Q14.3555,-5.07812 18.6523,-5.07812L21.1914,-5.07812Q26.9531,-5.07812 28.3203,-8.39844Q31.25,-11.1328 31.25,-24.8047Q31.25,-25.6836 30.3711,-30.6641L30.8594,-30.6641Q29.1016,-32.9102 28.7109,-36.1328Q23.5352,-39.0625 21.9727,-39.0625L20.7031,-39.0625Q14.8438,-39.0625 10.6445,-31.0547L9.76562,-30.6641Z"></path><path transform="translate(642 200)" d="M35.0586,-43.8477Q37.0117,-43.8477 38.4766,-37.5977Q38.4766,-32.7148 35.5469,-31.8359L34.1797,-31.8359L29.2969,-36.1328L27.4414,-36.1328Q26.4648,-36.1328 24.0234,-29.9805L22.168,-28.0273L22.6562,-27.0508L22.6562,-25.5859Q22.6562,-24.6094 21.6797,-24.6094Q22.168,-21.9727 22.168,-20.8008L21.6797,-17.4805Q22.6562,-14.8438 23.5352,-9.27734Q22.6562,-6.15234 22.6562,-4.98047Q24.2188,-4.98047 25,-5.46875Q25.293,-5.46875 26.9531,-4.98047Q29.5898,-5.46875 30.7617,-5.46875Q32.0312,-5.46875 33.2031,-3.02734Q31.9336,-0.195312 29.7852,-0.195312Q23.5352,-0.683594 19.7266,-0.683594L17.3828,-0.683594Q16.8945,-0.683594 16.8945,-1.17188Q11.4258,0.292969 7.71484,0.292969Q4.39453,-1.07422 4.39453,-4.00391Q4.88281,-5.46875 7.22656,-5.46875L8.20312,-5.46875L12.9883,-4.98047Q13.3789,-8.30078 13.9648,-8.30078Q13.3789,-13.4766 12.9883,-14.5508Q13.4766,-15.4297 13.4766,-16.5039Q13.0859,-16.5039 12.1094,-17.9688L12.5,-20.3125L12.5,-24.2188L13.4766,-25.5859Q12.1094,-27.4414 12.1094,-28.5156L12.5,-30.3711L12.1094,-32.8125L12.9883,-35.2539L12.1094,-35.6445L5.37109,-35.6445Q4.6875,-35.6445 3.90625,-37.1094Q3.90625,-41.0156 5.85938,-41.0156Q6.34766,-41.0156 7.22656,-40.5273Q14.4531,-42.3828 18.2617,-42.3828Q21.6797,-42.3828 22.6562,-36.6211L23.1445,-36.6211Q27.3438,-42.1875 34.1797,-43.8477L35.0586,-43.8477Z"></path><path transform="translate(684 200)" d=""></path><path transform="translate(717 200)" d="M85.2539,-68.6523L86.5234,-68.6523L91.6992,-66.5039L91.6992,-62.6953L89.5508,-59.668Q83.5938,-59.082 83.5938,-57.1289Q82.1289,-49.0234 80.5664,-49.0234L80.5664,-46.875Q79.0039,-43.2617 78.418,-39.2578Q77.5391,-39.2578 75.8789,-34.9609Q75.8789,-33.5938 74.6094,-31.1523L72.9492,-25.9766L72.9492,-21.2891Q72.0703,-19.6289 70.8008,-19.6289L70.8008,-13.6719Q70.4102,-12.207 66.9922,-8.10547Q66.9922,-5.07812 65.2344,-5.07812L64.8438,-5.07812L64.8438,-3.02734Q64.8438,-2.44141 62.3047,-1.66016Q62.3047,-0.878906 61.4258,-0.878906L60.1562,-0.878906Q58.5938,-1.75781 57.1289,-4.6875L57.1289,-5.95703L58.0078,-7.22656L56.25,-11.5234L56.25,-13.6719Q54.4922,-13.6719 53.7109,-20.8984Q52.5391,-21.582 51.1719,-24.3164L51.1719,-25.5859L52.0508,-26.8555L52.0508,-28.125L51.1719,-29.3945L51.1719,-32.4219Q49.5117,-32.4219 49.5117,-33.3008L49.5117,-35.3516Q48.0469,-35.3516 47.3633,-38.3789L46.4844,-38.3789Q46.4844,-37.6953 43.457,-34.9609Q43.457,-32.4219 41.4062,-28.6133Q41.4062,-22.9492 38.3789,-22.5586L38.3789,-20.5078Q38.3789,-19.6289 36.7188,-19.6289L36.7188,-14.4531L34.5703,-11.5234L34.5703,-5.95703Q30.7617,-0.292969 29.8828,-0L29.3945,-0Q28.7109,-0 25.9766,-4.29688Q25.5859,-4.29688 25.5859,-4.6875L25.5859,-8.49609L23.9258,-10.6445L23.9258,-14.9414Q22.9492,-14.9414 19.6289,-19.6289Q18.75,-19.6289 18.75,-20.5078L18.75,-25.1953L16.6016,-31.543Q16.1133,-31.543 14.9414,-35.3516L15.8203,-36.7188L15.8203,-37.1094L13.6719,-37.1094Q11.5234,-40.2344 10.2539,-46.875Q8.20312,-46.875 7.71484,-52.4414Q6.44531,-52.5391 5.56641,-54.9805Q4.39453,-54.9805 0,-59.668L0,-60.9375Q0,-61.8164 1.26953,-61.8164L1.26953,-63.9648Q2.83203,-66.6016 5.07812,-67.3828L7.22656,-66.9922L17.0898,-66.9922Q18.0664,-65.5273 23.4375,-62.6953L23.4375,-61.8164Q22.7539,-61.8164 21.2891,-58.8867L20.0195,-58.8867L20.0195,-57.5195L20.8984,-56.25Q20.0195,-56.1523 20.0195,-55.4688L20.0195,-51.5625Q21.0938,-50.3906 22.5586,-46.0938L22.5586,-43.0664Q24.0234,-43.0664 24.3164,-39.6484Q24.9023,-39.6484 25.5859,-38.3789L25.5859,-34.5703Q27.1484,-34.5703 28.6133,-27.2461Q30.0781,-27.2461 30.2734,-23.0469L31.9336,-21.7773L32.4219,-21.7773L32.4219,-23.9258L35.3516,-26.8555L34.5703,-28.125Q36.3281,-28.3203 38.3789,-34.9609Q38.3789,-35.3516 37.9883,-35.3516L38.3789,-37.5L38.3789,-40.5273Q38.3789,-41.4062 39.6484,-41.4062L39.6484,-43.457L42.1875,-48.6328L42.1875,-52.4414L40.0391,-57.5195Q38.3789,-58.2031 38.3789,-58.8867Q38.3789,-59.668 39.6484,-59.668L39.6484,-60.9375L37.5,-60.9375Q35.4492,-62.1094 35.3516,-62.6953L35.3516,-63.0859L37.5,-65.625L39.6484,-65.625Q39.6484,-67.0898 43.457,-67.3828L45.6055,-66.9922L57.1289,-66.9922L60.9375,-63.9648L60.9375,-61.8164Q60.9375,-59.8633 55.8594,-59.2773Q55.8594,-58.8867 55.4688,-58.8867L51.5625,-58.8867Q50.4883,-58.0078 49.5117,-58.0078L49.5117,-57.1289Q52.4414,-57.1289 52.4414,-54.9805Q53.3203,-54.8828 53.3203,-54.1992L53.3203,-50.293Q56.0547,-46.875 58.3984,-40.0391Q59.2773,-39.9414 59.2773,-39.2578L59.2773,-34.9609Q60.9375,-29.9805 63.0859,-26.4648L63.0859,-23.4375L64.8438,-23.4375Q64.8438,-24.707 65.625,-24.707L67.7734,-24.707L67.7734,-25.5859Q66.5039,-25.5859 66.5039,-25.9766Q66.9922,-26.8555 66.9922,-27.2461Q66.1133,-27.2461 66.1133,-28.125L66.1133,-28.6133L66.9922,-29.8828L66.9922,-33.6914Q67.9688,-37.1094 69.043,-37.1094L69.043,-39.2578Q71.0938,-43.0664 72.0703,-43.0664L72.0703,-45.2148L72.9492,-46.4844L72.9492,-50.293Q73.7305,-51.1719 74.6094,-57.5195Q75.4883,-58.0078 75.8789,-58.0078L75.8789,-59.668L73.7305,-59.668Q69.9219,-63.2812 69.9219,-63.5742Q73.0469,-67.7734 73.7305,-67.7734L83.9844,-67.7734L85.2539,-68.6523Z"></path><path transform="translate(809 200)" d="M15.8203,-43.8477L19.9219,-43.3594Q20.3125,-43.3594 22.6562,-43.8477Q29.2969,-43.8477 37.6953,-35.6445Q39.2578,-35.6445 42.2852,-25.0977Q41.3086,-20.9961 40.0391,-20.9961Q23.2422,-22.8516 21.2891,-22.8516Q10.3516,-22.3633 10.3516,-20.1172L10.3516,-19.6289Q12.207,-19.4336 12.207,-18.2617L12.207,-13.6719Q15.2344,-7.32422 17.1875,-7.32422Q18.9453,-7.32422 21.2891,-4.98047L22.168,-4.98047Q25.5859,-4.98047 33.2031,-11.9141L33.5938,-11.9141L33.5938,-12.3047L32.7148,-13.6719L32.7148,-15.5273Q35.8398,-19.6289 36.8164,-19.6289Q41.4062,-17.3828 41.4062,-16.4062L41.4062,-16.0156Q41.4062,-12.793 39.1602,-12.793L39.1602,-12.3047Q39.1602,-2.14844 22.168,-0L18.5547,-0Q6.64062,-0 4.39453,-10.0586Q1.66016,-12.5977 1.66016,-16.0156Q1.66016,-16.9922 2.14844,-17.7734Q1.66016,-18.5547 1.66016,-20.1172Q1.66016,-22.0703 2.53906,-24.2188Q1.66016,-25.6836 1.66016,-26.9531L1.66016,-27.4414L2.53906,-28.8086Q2.14844,-31.25 2.14844,-32.9102Q10.5469,-43.8477 15.8203,-43.8477ZM12.207,-30.1758L12.207,-28.3203Q12.5977,-26.9531 14.9414,-26.9531L21.2891,-26.9531L24.5117,-27.832L29.1016,-27.4414Q29.1992,-28.3203 29.9805,-28.3203Q27.2461,-32.3242 26.3672,-36.5234Q21.1914,-39.2578 19.4336,-39.2578Q13.0859,-39.2578 13.0859,-32.4219Q12.3047,-32.4219 12.207,-30.1758Z"></path><path transform="translate(853 200)" d="M10.0586,-66.8945L20.4102,-66.8945Q20.8984,-66.8945 21.3867,-65.918L21.3867,-63.2812L20.7031,-62.3047L20.7031,-62.0117L21.3867,-61.0352Q20.7031,-55.4688 20.4102,-54.4922Q20.7031,-51.7578 20.7031,-50L20.7031,-48.0469Q20.7031,-45.4102 20.4102,-41.8945Q20.7031,-41.3086 20.7031,-40.625L20.4102,-38.6719Q20.7031,-38.6719 20.7031,-38.2812L21.3867,-38.6719L23.0469,-38.6719Q23.0469,-40.625 29.7852,-42.8711L31.7383,-42.4805L36.3281,-42.8711Q42.1875,-39.9414 42.1875,-39.2578Q42.1875,-38.3789 46.3867,-33.7891Q48.5352,-31.25 49.6094,-25L49.3164,-23.3398Q49.6094,-21.582 49.6094,-20.8008L49.3164,-20.1172Q49.6094,-19.5312 49.6094,-19.1406Q46.9727,-8.49609 43.1641,-5.17578Q43.0664,-4.6875 38.5742,-1.95312Q38.5742,-1.46484 32.4219,-0.292969L31.1523,-0.292969Q30.0781,-0.292969 28.9062,-1.26953L28.2227,-1.26953L27.2461,-0.683594L26.5625,-0.683594Q24.9023,-2.53906 22.3633,-3.61328Q22.3633,-4.00391 21.3867,-4.58984Q20.8008,-0.292969 17.4805,-0.292969L14.2578,-0.292969Q12.6953,-0.292969 11.0352,-0Q4.19922,-0.292969 4.19922,-1.66016L4.19922,-2.24609Q4.19922,-5.85938 7.71484,-5.85938L10.0586,-5.56641Q10.9375,-6.83594 11.0352,-9.08203Q11.0352,-9.57031 10.3516,-12.0117L11.0352,-15.2344Q10.3516,-16.8945 9.66797,-27.9297Q10.3516,-30.4688 10.6445,-30.4688Q9.66797,-32.3242 9.66797,-42.4805L9.66797,-43.1641Q9.66797,-43.5547 10.3516,-46.7773L9.66797,-47.7539L9.66797,-49.3164Q9.66797,-50.8789 10.0586,-52.6367L9.66797,-54.4922L10.0586,-55.8594Q9.17969,-59.082 8.39844,-59.082L7.71484,-59.082Q6.83594,-59.082 5.85938,-58.3984Q0.292969,-59.1797 0.292969,-62.3047Q0.292969,-65.5273 5.46875,-65.5273Q5.46875,-66.5039 10.0586,-66.8945ZM20.4102,-25.293Q20.4102,-25 20.7031,-24.3164Q20.4102,-22.5586 20.4102,-21.3867Q20.4102,-18.9453 21.3867,-16.2109Q20.7031,-15.1367 20.7031,-14.2578L22.0703,-9.76562Q22.4609,-9.76562 23.6328,-8.10547L23.6328,-7.8125L23.3398,-6.15234L24.0234,-6.15234Q24.9023,-6.15234 28.5156,-4.88281L28.9062,-4.88281Q36.0352,-5.27344 36.0352,-7.42188Q37.4023,-9.57031 37.9883,-16.2109Q37.3047,-17.6758 37.3047,-19.4336Q37.9883,-20.5078 37.9883,-21.3867L37.9883,-23.7305Q37.9883,-25.0977 37.3047,-26.2695L37.9883,-27.9297Q36.2305,-35.5469 33.3984,-37.3047Q29.7852,-37.3047 29.1992,-37.9883Q23.2422,-35.0586 21.6797,-31.1523Q20.7031,-30.1758 20.4102,-25.293Z"></path></svg>